<svg width="17" height="17" viewBox="0 0 17 17" xmlns="http://www.w3.org/2000/svg"><title>A17BBBD2-2A5B-4742-B322-B27AC0E54DE5</title><path d="M13.462 3.774c-.146.2-1.306 1.702-3.865 2.757a21.648 21.648 0 0 1 .608 1.373c2.304-.292 4.592.177 4.82.225a7 7 0 0 0-1.563-4.355M6.482 1.4A37.39 37.39 0 0 1 9.065 5.49c2.461-.931 3.503-2.346 3.628-2.525a6.855 6.855 0 0 0-6.211-1.567M1.328 6.764c.31.004 3.162.016 6.4-.852A44.668 44.668 0 0 0 5.16 1.869a7.005 7.005 0 0 0-3.833 4.895m1.633 6.106c.157-.271 2.057-3.448 5.627-4.613.09-.03.181-.058.273-.084A23.598 23.598 0 0 0 8.3 6.987c-3.457 1.045-6.812 1.001-7.114.995a7.002 7.002 0 0 0 1.776 4.888m7.846 1.761c-.103-.613-.505-2.751-1.477-5.302l-.045.016c-3.905 1.374-5.306 4.109-5.43 4.366a6.845 6.845 0 0 0 6.952.92m4.13-5.326c-.236-.075-2.142-.65-4.311-.299.905 2.513 1.274 4.56 1.345 4.985a7.01 7.01 0 0 0 2.967-4.686M8.104 16.37C3.636 16.37 0 12.698 0 8.185S3.636 0 8.104 0c4.469 0 8.104 3.672 8.104 8.185s-3.635 8.185-8.104 8.185" fill="#4D4545" fill-rule="evenodd"/></svg>