<?xml version="1.0" encoding="utf-8"?>
<!-- Generator: Adobe Illustrator 24.1.2, SVG Export Plug-In . SVG Version: 6.00 Build 0)  -->
<svg version="1.1" id="Layer_1" xmlns="http://www.w3.org/2000/svg" xmlns:xlink="http://www.w3.org/1999/xlink" x="0px" y="0px"
	 viewBox="0 0 269.6 88.8" style="enable-background:new 0 0 269.6 88.8;" xml:space="preserve">
<style type="text/css">
	.st0{fill:#231F20;}
</style>
<path class="st0" d="M93.1,24.5c-12.3,0-22.2,9.3-22.2,22.2c0,12.8,10,22.2,22.2,22.2c12.3,0,22.2-9.4,22.2-22.2
	C115.4,33.8,105.4,24.5,93.1,24.5z M93.1,60.1c-6.7,0-12.5-5.5-12.5-13.4c0-8,5.8-13.4,12.5-13.4c6.7,0,12.5,5.5,12.5,13.4
	C105.6,54.6,99.9,60.1,93.1,60.1z M141.1,24.5c-12.3,0-22.2,9.3-22.2,22.2c0,12.8,10,22.2,22.2,22.2c12.3,0,22.2-9.4,22.2-22.2
	C163.4,33.8,153.4,24.5,141.1,24.5z M141.1,60.1c-6.7,0-12.5-5.5-12.5-13.4c0-8,5.8-13.4,12.5-13.4c6.7,0,12.5,5.5,12.5,13.4
	C153.6,54.6,147.9,60.1,141.1,60.1z M200.1,25.9v3.6h-0.3c-2.2-2.6-6.4-5-11.7-5c-11.1,0-21.2,9.7-21.2,22.3
	c0,12.4,10.2,22.1,21.2,22.1c5.3,0,9.5-2.3,11.7-5h0.3V67c0,8.5-4.5,13-11.8,13c-6,0-9.7-4.3-11.2-7.9l-8.5,3.5
	c2.4,5.9,8.9,13.1,19.7,13.1c11.4,0,21.1-6.7,21.1-23.1V25.9l0,0H200.1z M189,60.1c-6.7,0-12.3-5.6-12.3-13.4
	c0-7.8,5.6-13.5,12.3-13.5c6.6,0,11.8,5.7,11.8,13.5C200.8,54.5,195.6,60.1,189,60.1z M215.1,67.5h9.5v-65h-9.5V67.5z M250.7,60.1
	c-5,0-8.5-2.3-10.8-6.7l29.7-12.3l-1-2.5c-1.8-5-7.5-14.1-19-14.1c-11.4,0-20.9,9-20.9,22.2c0,12.4,9.4,22.2,22,22.2
	c10.2,0,16-6.2,18.5-9.8l-7.6-5C259.1,57.7,255.7,60.1,250.7,60.1z M250,33.1c3.9,0,7.1,1.9,8.2,4.7L238.4,46
	C238.1,37.5,245,33.1,250,33.1z M34.9,31.5v9.4l22.5,0c-0.7,5.2-2.4,9-5.1,11.7c-3.3,3.3-8.4,6.9-17.4,6.9
	c-13.9,0-24.7-11.2-24.7-25c0-13.9,10.8-25,24.7-25c7.5,0,12.9,2.9,17,6.7l6.6-6.6C52.9,4.1,45.4,0,34.9,0C16,0,0,15.5,0,34.4
	s16,34.4,34.9,34.4c10.2,0,18-3.4,24-9.7c6.2-6.2,8.2-14.9,8.2-22c0-2.1-0.2-4-0.5-5.7H34.9z"/>
</svg>
