<?xml version="1.0" encoding="utf-8"?>
<!-- Generator: Adobe Illustrator 24.1.2, SVG Export Plug-In . SVG Version: 6.00 Build 0)  -->
<svg version="1.1" id="Layer_1" xmlns="http://www.w3.org/2000/svg" xmlns:xlink="http://www.w3.org/1999/xlink" x="0px" y="0px"
	 viewBox="0 0 330.7 41.7" style="enable-background:new 0 0 330.7 41.7;" xml:space="preserve">
<style type="text/css">
	.st0{fill:#231F20;}
</style>
<g>
	<path class="st0" d="M330.7,41c-0.4,0-0.9,0-1.3,0c-13.3,0-26.6,0-39.9,0c-0.5,0-0.9,0-1.4,0c-0.3-0.9-0.3-38.4-0.1-40
		c0.4,0,0.9-0.1,1.4-0.1c13.3,0,26.5,0,39.8,0c0.5,0,1-0.1,1.5-0.1c0,3.2,0,6.4,0,9.5c-0.2,0-0.4-0.1-0.6-0.1c-10.5,0-21,0-31.5,0
		c-0.3,0-0.5,0.1-0.8,0.1c0,2.1,0,4.1,0,6.2c0.5,0,0.9,0,1.4,0c10.1,0,20.2,0,30.3,0c0.4,0,0.8,0,1.2,0c0,2.9,0,5.9,0,8.8
		c-0.1,0-0.2,0-0.4,0c-10.6,0-21.2,0-31.9,0c-0.2,0-0.4,0.1-0.7,0.1c-0.2,1.7-0.1,5.2,0.1,6.2c0.4,0,0.8,0,1.1,0
		c10.2,0,20.4,0,30.5,0c0.4,0,0.7,0,1.1,0C330.7,34.8,330.7,37.9,330.7,41z"/>
	<path class="st0" d="M191.6,0c0.3,0.3,0.5,0.6,0.8,0.9c6.3,6.2,12.5,12.5,18.8,18.7c2.3,2.3,4.7,4.7,7.1,7c0.4,0.4,0.7,0.8,0.7,1.4
		c0,4.3,0,8.6,0,12.9c0,0.2,0,0.3-0.1,0.7c-9.2-9.2-18.3-18.3-27.5-27.5c-9.2,9.2-18.3,18.3-27.7,27.6c0-0.6,0-1,0-1.3
		c0-3.9,0-7.8,0-11.7c0-0.8,0.3-1.4,0.8-2c8.6-8.5,17.2-17.1,25.8-25.6c0.3-0.3,0.7-0.7,1-1C191.4,0,191.5,0,191.6,0z"/>
	<path class="st0" d="M68.8,30c0,3.7,0,7.3,0,11c-3.7,0.1-7.2,0-10.8,0c0-13.3,0-26.6,0-39.9c0.4,0,0.7-0.1,1-0.1
		c11.4,0,22.8,0,34.2,0c2,0,4,0.2,5.9,0.6c4.8,1.1,7.9,4,9.2,8.7c1,3.6,0.9,7.2-0.1,10.7c-1.3,4.4-4.3,7-8.7,8.1
		c-1.9,0.5-3.9,0.7-5.9,0.7c-7.7,0-15.3,0-23,0C69.9,30,69.4,30,68.8,30z M68.8,20.7c0.5,0,0.8,0,1.2,0c7.9,0,15.7,0,23.6,0
		c0.2,0,0.5,0,0.7,0c2.2-0.2,3.6-1.3,3.9-3.4c0.2-1.1,0.2-2.2,0-3.3c-0.3-2.1-1.8-3.2-3.9-3.3c-0.2,0-0.4,0-0.6,0
		c-7.9,0-15.9,0-23.8,0c-0.3,0-0.7,0-1.1,0.1C68.8,14.1,68.8,17.3,68.8,20.7z"/>
	<path class="st0" d="M275.5,1.3C269.8,7,264,12.7,258.2,18.5c7.5,7.5,15,14.9,22.6,22.5c-4.6,0-9,0-13.6,0
		c-5.2-5.2-10.5-10.4-15.8-15.7c-5.3,5.3-10.6,10.5-15.8,15.7c-2.3,0-4.4,0-6.6,0c-0.2-1-0.3-38.7,0-40c3.1,0,6.2,0,9.4,0
		c0,7.8,0,15.5,0,23.5c1-1,1.8-1.7,2.6-2.5c1.2-1.2,2.4-2.4,3.6-3.6c5.5-5.5,11-11,16.5-16.5c0.6-0.6,1.2-0.9,2-0.8
		c3.7,0,7.4,0,11.1,0c0.4,0,0.7,0,1.1,0C275.4,1.1,275.5,1.2,275.5,1.3z"/>
	<path class="st0" d="M38.6,1.1c3.5,0,6.9,0,10.4,0c0,0.3,0.1,0.7,0.1,1c0,7.9,0,15.8,0,23.7c0,2.1-0.3,4.2-1,6.2
		c-1.5,4.6-4.8,7.4-9.5,8.4c-1.5,0.3-3,0.5-4.5,0.5c-6.4,0.1-12.9,0-19.3,0c-1.9,0-3.7-0.3-5.5-0.8c-4.8-1.5-7.6-4.7-8.6-9.5
		c-0.3-1.5-0.5-3-0.5-4.5c0-8,0-15.9,0-23.9C0,2,0,1.6,0,1.1c3.5,0,6.8,0,10.4,0c0,0.5,0.1,0.9,0.1,1.4c0,7.6,0,15.2,0,22.8
		c0,0.9,0.1,1.7,0.3,2.6c0.3,1.6,1.4,2.6,2.9,3.1c0.9,0.3,1.9,0.5,2.9,0.5c5.3,0,10.6,0,15.9,0c0.8,0,1.6-0.1,2.4-0.3
		c2.3-0.6,3.6-2.3,3.7-4.8c0-0.3,0-0.6,0-1c0-7.6,0-15.2,0-22.8C38.6,2.1,38.6,1.7,38.6,1.1z"/>
	<path class="st0" d="M133.8,10.7c-6.3,0-12.4,0-18.5,0c-0.2-1-0.3-8.3-0.1-9.6c16,0,31.9,0,47.9,0c0,3.2,0,6.3,0,9.5
		c-6.2,0-12.3,0-18.6,0c0,10.1,0,20.2,0,30.3c-3.6,0-7.1,0-10.8,0c-0.1-1.4,0-2.8-0.1-4.2c0-1.4,0-2.9,0-4.3c0-1.4,0-2.9,0-4.3
		c0-1.5,0-2.9,0-4.4c0-1.4,0-2.9,0-4.3c0-1.4,0-2.9,0-4.3C133.8,13.7,133.8,12.3,133.8,10.7z"/>
</g>
</svg>
