<?xml version="1.0" encoding="utf-8"?>
<!-- Generator: Adobe Illustrator 24.1.2, SVG Export Plug-In . SVG Version: 6.00 Build 0)  -->
<svg version="1.1" id="Layer_1" xmlns="http://www.w3.org/2000/svg" xmlns:xlink="http://www.w3.org/1999/xlink" x="0px" y="0px"
	 viewBox="0 0 425.2 51.2" style="enable-background:new 0 0 425.2 51.2;" xml:space="preserve">
<style type="text/css">
	.st0{fill:#231F20;}
</style>
<g>
	<path class="st0" d="M425.2,38.5c-4.1,0-8.2,0-12.2,0c-0.1,0-0.2,0-0.4-0.1c0-0.4,0-0.7,0-1.2c1.4,0,2.7-0.1,4.2-0.1
		c0.2-3,0.1-5.9,0.1-8.8c0-3,0-5.9,0-8.9c0-2.9,0-5.8,0-8.8c0-2.9,0-5.8,0-8.8c-1.4-0.4-2.9,0-4.3-0.3c0-0.4,0-0.8,0.1-1.2
		c2.9-0.1,5.7-0.2,8.6-0.3c0,0.5,0.1,1,0.1,1.4c0,11.4,0,22.7,0,34.1c0,0.5,0,0.9,0.1,1.5c1.4,0.2,2.7,0.1,4,0
		C425.2,37.5,425.2,38,425.2,38.5z"/>
	<path class="st0" d="M34.5,49.6c1.1,0,1.9,0,2.7,0c0.3,0,0.6,0.1,0.8,0.2c0.4,0.3,0.3,1.1-0.2,1.3c-0.3,0.1-0.5,0.1-0.8,0.1
		c-3.1,0-6.2,0-9.4,0c-0.2,0-0.4-0.1-0.7-0.1c0-0.4-0.1-0.9-0.1-1.5c1.1,0,2,0,3,0c0-0.6,0.1-1,0.1-1.5c0-7.1,0-14.2,0-21.4
		c0-2.4,0-4.9,0-7.3c0-0.4,0-0.8,0-1.3c-1,0-1.9-0.1-3-0.1c-0.1-0.4-0.1-0.8-0.2-1.2c2.5-0.2,5-0.4,7.6-0.7c0,1.2,0.1,2.3,0.1,3.5
		c0.1,0,0.1,0,0.2,0.1c0.2-0.2,0.3-0.4,0.5-0.6c2-2.8,5.3-3.7,8.5-2.7c3.3,0.9,5.6,3.1,6.9,6.3c0.4,1.1,0.8,2.2,0.8,3.4
		c0,1.2,0.2,2.4,0,3.7c-0.6,4.4-2.8,7.6-7,9.2c-2.3,0.8-4.7,0.9-7-0.3c-0.5-0.3-0.9-0.6-1.3-1c-0.5-0.4-0.9-0.9-1.5-1.5
		C34.5,40.6,34.5,45,34.5,49.6z M46.2,27.8c0-0.6,0-1.2,0-1.8c0-1.9-0.3-3.8-1-5.6c-0.4-1.1-1-2-2.1-2.5c-2.2-0.9-4.2-0.6-6,0.9
		c-2,1.6-2.5,3.9-2.6,6.3c-0.1,1.9-0.1,3.8,0,5.7c0.1,2.5,1,4.7,3.3,6.1c1.5,1,3.2,1.1,4.8,0.7c2-0.5,2.7-2.2,3.1-4
		C46.2,31.8,46.4,29.9,46.2,27.8z"/>
	<path class="st0" d="M334.4,18c-1,0-1.9,0-2.9,0c-0.1-0.5-0.1-0.9-0.2-1.3c2.5-0.2,5-0.4,7.5-0.6c0.3,1.2-0.1,2.4,0.3,3.7
		c0.5-0.6,0.9-1,1.3-1.5c2.2-2.3,4.9-2.8,7.8-2c4.6,1.3,7,4.6,7.7,9.2c0.3,1.6,0.3,3.2,0,4.8c-0.8,4.1-3,7.1-7,8.5
		c-2.3,0.8-4.7,0.9-7-0.3c-0.7-0.4-1.3-1-1.9-1.5c-0.3-0.3-0.5-0.6-0.8-0.8c-0.1,0-0.2,0-0.2,0.1c0,0-0.1,0.1-0.1,0.1
		c0,4.2,0,8.5,0,12.7c0,0.1,0.1,0.2,0.2,0.5c1.1,0,2.2,0.1,3.5,0.2c0,0.5,0,0.9,0,1.3c-1,0.3-10.1,0.4-11.2,0c0-0.4,0-0.8,0-1.3
		c1,0,1.9-0.1,2.9-0.1c0.1-0.3,0.2-0.6,0.2-0.9c0-9.9,0-19.8,0-29.8C334.5,18.6,334.5,18.4,334.4,18z M350.9,28.3
		c0-2.5,0-4.6-0.6-6.6c-0.8-3.4-2.9-4.8-6.2-4c-2.6,0.6-4.1,2.6-4.6,5.1c-0.6,2.9-0.6,5.9-0.3,8.8c0.3,2.8,1.7,5,4.4,6
		c1.4,0.6,2.9,0.5,4.3-0.1c1.5-0.7,2.1-2.1,2.5-3.6C350.8,32,350.9,29.9,350.9,28.3z"/>
	<path class="st0" d="M3.2,36.5c-1,0.7-1.5,2.1-3,2.3C0.1,38.4,0,38,0,37.7c0-2.6,0-5.2,0-7.8c0-0.2,0.1-0.5,0.1-0.7
		c0.9-0.1,1.1-0.1,1.4,0.7c0.5,1.4,1.1,2.7,2.1,3.9c1.2,1.4,2.5,2.6,4.3,3.4c4.2,1.8,9.3,0.4,11.7-2.9c1.4-2,1.7-4.2,1.2-6.5
		c-0.3-1.2-1-2.1-2-2.7c-0.9-0.6-1.9-1.1-3-1.5C12.4,22.3,9,21.2,5.7,20c-2.6-1-4.3-3-5.1-5.7c-1.3-4-0.4-7.5,2.4-10.5
		c1.9-2.1,4.4-3,7.1-3.2c2.5-0.2,4.8,0.7,7,1.8c0.3,0.2,0.6,0.3,1,0.5c0.9-0.2,1.4-1.3,2.4-1.3c0.2,0,0.4,0.1,0.6,0.2
		c0,2.7,0,5.4,0,8.3c-0.3,0.1-0.7,0.1-1.1,0.2c-0.4-0.9-0.8-1.8-1.1-2.6c-1.2-2.6-3.1-4.4-5.9-5.2c-3.7-1.1-8.2,0.6-9.7,4
		c-1,2.3-0.6,4.8,1.6,6.2c1.4,0.9,3,1.5,4.6,1.9c2.6,0.8,5.3,1.4,7.8,2.5c2.8,1.3,4.9,3.1,5.8,6.1c0.5,1.7,0.8,3.6,0.5,5.4
		c-0.3,2.2-0.8,4.4-2.2,6.2c-1.6,2.2-3.7,3.5-6.2,4.1c-1.1,0.3-2.3,0.5-3.4,0.5C8.7,39.5,5.8,38.6,3.2,36.5z"/>
	<path class="st0" d="M154.2,2.9c1.1-0.4,1.5-1.6,2.7-1.3c0.3,0.8,0.3,6.9,0.1,8.4c-0.9,0.3-1.2,0.2-1.4-0.6
		c-0.7-2.1-1.8-3.9-3.4-5.3c-3.3-2.8-8.5-2.7-11.5,0.5c-1.6,1.6-2.3,3.5-1.5,5.8c0.3,0.9,1,1.6,1.8,2.2c1.4,1,3.1,1.5,4.7,2
		c2.2,0.7,4.5,1.3,6.6,2.1c1.3,0.5,2.4,1.2,3.6,1.9c2.2,1.5,3.5,3.7,3.8,6.4c0.4,2.8,0.1,5.5-1,8.1c-1.1,2.6-3.1,4.5-5.7,5.5
		c-3.6,1.5-7.3,1.3-10.8-0.1c-1-0.4-1.9-1.2-2.9-1.8c-0.6,0.2-0.8,0.7-1.2,1.2c-0.4,0.4-0.8,0.9-1.6,1c-0.1-0.2-0.3-0.4-0.3-0.7
		c0-2.8,0-5.6,0-8.4c0-0.1,0.1-0.3,0.2-0.5c0.2,0,0.6-0.1,0.7,0c0.3,0.2,0.4,0.6,0.6,0.9c0.4,0.8,0.7,1.7,1.2,2.5
		c1.2,2,2.8,3.7,5,4.6c3.7,1.5,7.1,1.1,10.3-1.3c2.3-1.7,3.2-4.1,3-6.9c-0.1-1.6-0.8-2.9-2.2-3.8c-1.3-0.9-2.8-1.5-4.3-2
		c-3-1.1-6-2-9-3.2c-2.5-1-4-2.9-4.9-5.4c-0.6-1.8-0.7-3.6-0.4-5.4c0.2-1.1,0.6-2.2,1.1-3.1c2-3.5,5.2-5.3,9.3-5.4
		c2.4,0,4.4,0.8,6.5,1.8C153.5,2.6,153.9,2.7,154.2,2.9z"/>
	<path class="st0" d="M302.5,28.5c0.3,0,0.7,0,1.3,0c0,3.3,0,6.5,0,9.8c-1.2,0.5-1.5,0.4-2.2-0.6c-0.3-0.4-0.6-0.7-0.9-1.2
		c-0.4,0.3-0.7,0.5-1,0.6c-3.3,2.2-6.8,2.7-10.6,2c-3.1-0.6-5.6-1.9-7.8-4.2c-2-2-3.3-4.5-4.2-7.2c-0.9-2.8-1.3-5.7-1.2-8.6
		c0.2-5.2,2-9.8,5.6-13.6c1.8-1.9,3.9-3.3,6.3-4.2c3.8-1.4,7.4-1,10.9,1.1c0.5,0.3,1,0.6,1.5,0.9c0.9-0.4,1.4-1.5,2.5-1.6
		c0.1,0.3,0.3,0.5,0.3,0.7c0,2.8,0,5.6,0,8.4c0,0.1-0.1,0.3-0.2,0.6c-0.4,0-0.8-0.1-1.1-0.1c-0.4-1.2-0.8-2.4-1.2-3.5
		c-1-2.2-2.3-4-4.6-5c-4.4-2-9.1-0.5-11.4,3.7c-0.8,1.5-1.2,3.2-1.5,4.9c-0.8,4.3-0.7,8.7-0.7,13c0.1,2.5,0.3,5.1,1.2,7.5
		c1.2,3.1,3.2,4.9,6.5,5.4c1.7,0.3,3.3,0.2,5-0.4c2.1-0.7,3.7-2.2,4.9-4C301,31.7,301.7,30.2,302.5,28.5z"/>
	<path class="st0" d="M92.8,36.2c-1,1.1-2.1,1.8-3.3,2.3c-1.9,0.7-3.9,1.1-6,0.6c-1.2-0.3-2.3-0.6-3.2-1.5c-0.8-0.9-1.2-1.9-1.3-3.1
		c-0.1-1.6,0.2-3.1,1.2-4.4c1.1-1.4,2.6-2.5,4.3-3.1c2.3-0.9,4.7-1.1,7.1-1.2c0.3,0,0.7-0.1,1.1-0.1c0-0.4,0.1-0.6,0.1-0.9
		c0-1.4,0-2.8,0-4.2c0-1.3-1-2.7-2.4-3.1c-2-0.5-3.8-0.1-5.6,0.6c-0.1,0.1-0.3,0.1-0.4,0.2c-0.6,0.5-0.6,0.8,0,1.3
		c0.8,0.6,1.2,1.4,1.1,2.4c-0.1,1-0.8,1.9-1.7,2c-1.2,0.2-2.4-0.3-2.8-1.3c-0.4-1.1-0.3-2.2,0.3-3.2c0.8-1.4,2.1-2.3,3.6-2.8
		c3-1,6-1,9-0.2c2.4,0.6,3.4,2.1,3.4,4.5c0,4.6,0,9.3,0,13.9c0,0.4,0,0.8,0,1.2c0,0.4,0.1,0.7,0.5,0.9c0.4,0.1,0.9,0.1,1.2-0.2
		c0.3-0.3,0.5-0.7,0.7-1.1c0.1-0.2,0.2-0.5,0.3-0.8c0.2-0.3,0.5-0.5,0.8-0.2c0.2,0.1,0.3,0.5,0.3,0.7c-0.4,1.6-1.2,3-2.9,3.6
		c-0.9,0.4-1.8,0.7-2.9,0.3c-1.1-0.4-1.9-1-2.3-2.1C93.1,36.9,93,36.6,92.8,36.2z M92.8,27.2c-0.2-0.1-0.4-0.2-0.5-0.2
		c-2.1,0.1-4.2,0.4-6.1,1.3c-2.6,1.2-3.2,3.6-2.7,5.7c0.2,1.1,0.9,1.9,1.8,2.4c2,1,3.9,0.7,5.7-0.5c1.1-0.7,1.7-1.7,1.8-2.9
		C92.8,31.1,92.8,29.1,92.8,27.2z"/>
	<path class="st0" d="M402.4,25.7c0-0.4,0.1-0.7,0.1-0.9c0-1.5,0-3,0-4.6c0-1.2-0.6-2-1.6-2.5c-0.6-0.3-1.3-0.5-1.9-0.5
		c-1.5,0-2.9,0.2-4.3,0.8c-0.4,0.2-0.7,0.6-1.2,0.9c0.4,0.4,0.7,0.6,1,0.9c1.1,1,0.9,2.7,0.3,3.5c-0.7,0.8-1.6,0.9-2.5,0.7
		c-0.9-0.2-1.4-0.9-1.6-1.8c-0.3-1.2,0-2.3,0.8-3.3c0.9-1.1,2-1.9,3.4-2.3c3-0.9,6-0.9,9.1-0.1c2.1,0.6,3.1,2.5,3.1,4.1
		c-0.1,4.8,0,9.5,0,14.3c0,0.7-0.1,1.5,0.6,2c1,0.1,1.3,0,1.7-0.8c0.3-0.5,0.5-1.1,0.8-1.6c0.9,0.1,1,0.2,0.9,0.8
		c-0.3,1.6-1.2,2.9-2.7,3.5c-1,0.4-2.1,0.8-3.2,0.2c-1-0.4-1.7-1.1-2.1-2c-0.1-0.2-0.2-0.4-0.3-0.6c-0.3,0.1-0.5,0.2-0.7,0.4
		c-1.7,1.6-3.8,2.3-6.1,2.5c-1.8,0.2-3.5-0.2-5.1-1.1c-1.6-0.9-2.5-3.4-2.1-5.2c0.6-3.2,2.7-5,5.6-6.1c2.4-0.9,4.9-1.2,7.4-1.2
		C401.9,25.7,402.1,25.7,402.4,25.7z M402.4,27c-0.4,0-0.8,0-1.2,0c-1.5,0.2-3,0.4-4.4,0.9c-2.4,0.8-4.1,2.7-3.7,5.6
		c0.2,1.3,0.8,2.3,2,2.9c1.8,0.9,3.6,0.6,5.3-0.4c1-0.6,1.9-1.4,2-2.7C402.5,31.3,402.4,29.3,402.4,27z"/>
	<path class="st0" d="M321.4,25.6c-0.2-2.1,0.3-4.1-0.3-6c-0.3-1.1-1-1.7-2-2c-1-0.3-2-0.5-3.1-0.2c-0.8,0.2-1.7,0.4-2.5,0.6
		c-0.3,0.1-0.5,0.3-0.7,0.4c-0.4,0.4-0.4,0.7,0,1.1c0.3,0.4,0.7,0.7,0.9,1.1c0.7,1.1,0.2,2.6-0.9,3.2c-0.9,0.6-2.5,0.2-3.1-0.7
		c-0.5-0.7-0.6-1.6-0.4-2.4c0.2-1.1,0.8-2,1.7-2.7c1.3-1.1,2.9-1.6,4.6-1.9c1.7-0.3,3.5-0.2,5.3,0c0.7,0.1,1.5,0.3,2.2,0.5
		c1.8,0.7,2.7,2,2.7,4c0,4.4,0,8.9,0,13.3c0,0.7,0.1,1.3,0.2,2c0,0.5,0.1,0.9,0.7,1c0.5,0.1,1-0.1,1.3-0.5c0.3-0.4,0.5-0.8,0.7-1.3
		c0.2-0.5,0.5-0.8,1.1-0.6c0.4,0.7,0,1.3-0.2,1.8c-0.4,1.1-1.2,2-2.2,2.4c-1.1,0.5-2.3,0.8-3.6,0.2c-1.2-0.6-1.7-1.6-2.3-2.7
		c-0.5,0.4-0.9,0.8-1.3,1.1c-1.1,0.8-2.3,1.3-3.5,1.6c-1.8,0.5-3.6,0.4-5.3-0.1c-1.8-0.5-3.1-1.6-3.5-3.5c-0.6-2.6,0.2-4.9,2.3-6.7
		c1.4-1.2,3-1.8,4.8-2.3c1.9-0.5,3.8-0.6,5.8-0.7C320.7,25.7,321,25.6,321.4,25.6z M321.3,27.1c-0.2,0-0.3-0.1-0.5-0.1
		c-2.1,0-4,0.4-5.9,1.2c-1.7,0.7-2.9,2-3.1,4c-0.2,2.1,0.6,4,2.7,4.6c1,0.3,2.1,0.3,3.1,0c2.8-0.8,3.7-2.2,3.8-4.8
		c0-1.4,0-2.7,0-4.1C321.4,27.6,321.3,27.4,321.3,27.1z"/>
	<path class="st0" d="M242.4,26c-2.6,0-5.2,0-7.7,0c-2.5,0-5,0-7.5,0c-0.1,0.3-0.1,0.4-0.1,0.6c0,1.6,0,3.3,0,4.9
		c0,1.2,0.4,2.3,0.9,3.3c0.9,2,2.5,2.8,4.5,3.1c3.7,0.4,6.6-2,8-4.6c0.3-0.5,0.5-1.1,0.8-1.7c0.3,0,0.6-0.1,1.1-0.1
		c0,0.3,0.2,0.5,0.1,0.7c-0.8,2.5-2,4.7-4.5,5.9c-2.2,1.1-4.5,1.6-6.9,1.1c-2.2-0.4-4.1-1.2-5.7-2.7c-2.4-2.1-3.6-4.8-3.6-8
		c0-3.5,1.1-6.7,3.5-9.3c2.3-2.5,5.2-3.5,8.5-3.2c2,0.2,3.7,0.8,5.3,2c1.6,1.2,2.5,2.7,3.1,4.5C242.4,23.6,242.6,24.7,242.4,26z
		 M237.3,24c0.3-1.5,0-2.8-0.4-4.2c-0.3-0.7-0.7-1.4-1.5-1.8c-1.6-0.9-3.2-1.2-4.9-0.4c-2.3,1-3.9,3.9-3.3,6.5
		C228.3,24.4,236.3,24.3,237.3,24z"/>
	<path class="st0" d="M218.1,26c-1.4,0-2.7,0-4,0c-1.3,0-2.6,0-3.8,0c-1.3,0-2.6,0-4,0c-1.3,0-2.5-0.1-3.9,0.1c0,1.2-0.1,2.4,0,3.5
		c0.1,1.6,0.3,3.2,0.8,4.7c0.8,2.4,3,3.5,5.1,3.6c3.5,0.1,6.6-2,7.9-5.3c0.1-0.4,0.3-0.7,0.5-1.2c0.4,0.1,0.7,0.1,1.1,0.2
		c-0.2,1.8-0.9,3.2-2,4.5c-1.3,1.6-3.1,2.4-5.1,2.9c-1.9,0.4-3.7,0.3-5.6-0.1c-1.6-0.4-3.1-1.2-4.4-2.3c-3-2.6-4.2-5.9-3.7-9.9
		c0.3-2.6,1.3-5,3-7.1c2.3-2.7,5.2-3.9,8.8-3.7c3.2,0.2,5.7,1.5,7.5,4.2C217.6,21.9,218,23.8,218.1,26z M202.7,24.1
		c1.2,0.3,9.1,0.2,10-0.1c0-0.7,0-1.5,0-2.3c-0.1-3.4-2.6-4.7-5.2-4.4C204.2,17.5,202.2,20.7,202.7,24.1z"/>
	<path class="st0" d="M59.7,26.1c-0.1,2.6-0.1,5,0.5,7.3c0.7,2.6,2.1,4.3,5.5,4.6c3.5,0.3,6.9-2.6,7.9-5.4c0.4-1.1,0.5-1.1,1.6-0.9
		c0,1.3-0.6,2.5-1.3,3.5c-1.3,2-3.2,3.2-5.6,3.8c-2.1,0.5-4.2,0.4-6.1-0.2c-2.8-0.9-5-2.6-6.5-5.2c-1.3-2.2-1.5-4.6-1.2-7.1
		c0.3-2.6,1.3-5,3-7c2.2-2.5,4.9-3.7,8.3-3.6c3,0.1,5.5,1.2,7.4,3.5c1.2,1.5,2.2,4.2,2,6.5c-0.4,0-0.9,0.1-1.4,0.1
		c-4.3,0-8.6,0-12.9,0C60.6,26,60.1,26.1,59.7,26.1z M59.7,24c0.5,0.1,0.8,0.2,1.1,0.2c2.5,0.2,8.4,0,9.2-0.2
		c0.2-1.2,0.2-2.5-0.2-3.8c-0.3-1.1-1-2-2.1-2.5c-2-1-4.4-0.6-6.1,0.9C60.2,20.1,60.1,22,59.7,24z"/>
	<path class="st0" d="M248.4,18c-1,0-1.9,0-2.9,0c-0.1-0.5-0.2-0.9-0.3-1.4c1.1,0,2.1-0.1,3.1-0.1c0.2-2.3-0.1-4.5,0.2-6.7
		c1.4-0.1,2.7-0.1,4.1-0.2c0.4,0.7,0.2,1.5,0.2,2.2c0,0.8,0,1.6,0,2.4c0,0.8,0,1.5,0,2.4c1.6,0,3.2,0.1,4.8,0.1c0,0.5,0,0.9,0,1.3
		c-1.6,0.3-3.1,0-4.7,0.2c0,0.4,0,0.8,0,1.2c0,5.2,0,10.5,0,15.7c0,0.8,0,1.5,0.7,1.9c0.9,0.4,1.8,0.4,2.6-0.1
		c0.3-0.2,0.6-0.5,0.9-0.8c0.1-0.1,0.2-0.3,0.4-0.5c0.4-0.3,0.8-0.3,1.1,0.1c0.3,0.3,0.2,0.6,0,0.9c-0.7,0.6-1.3,1.3-2,1.8
		c-1,0.7-2.3,1-3.5,1.1c-1.1,0.1-2.1-0.2-3-0.7c-1.1-0.5-1.5-1.5-1.6-2.6c-0.1-0.4-0.1-0.9-0.1-1.3c0-5.1,0-10.2,0-15.3
		C248.4,19,248.4,18.6,248.4,18z"/>
	<path class="st0" d="M386.1,36c-0.8,1.4-2,2.3-3.5,2.8c-1.4,0.5-2.8,0.7-4.3,0.2c-1.5-0.5-2.2-1.4-2.5-2.8
		c-0.1-0.4-0.1-0.9-0.1-1.3c0-5.2,0-10.5,0-15.7c0-0.4,0-0.8,0-1.2c-0.8,0-1.5,0-2.2,0c-0.9,0-1-0.1-1-1.2c0.9-0.5,2,0,3.1-0.4
		c0-1.1,0-2.2,0-3.3c0-1.1,0-2.2,0-3.4c1.5,0,2.9,0,4.4,0c0,2.3,0,4.5,0,6.7c1.6,0.3,3.2-0.1,4.7,0.2c0.1,1.2,0,1.3-1,1.3
		c-1.2,0-2.3,0-3.6,0c-0.1,0.4-0.1,0.7-0.1,1c0,5.3,0,10.5,0,15.8c0,0.1,0,0.2,0,0.2c0,0.7,0.1,1.5,0.8,1.9c0.9,0.4,1.8,0.4,2.6-0.2
		c0.4-0.3,0.7-0.7,1.1-1.1C385.2,35.1,385.5,35.2,386.1,36z"/>
	<path class="st0" d="M170,9.7c0,2.2,0,4.4,0,6.7c1.6,0.4,3.2,0,4.9,0.3c0,0.4-0.1,0.9-0.1,1.4c-1.6,0-3.1,0-4.7,0
		c0,0.4-0.1,0.7-0.1,1c0,5.2,0,10.4,0,15.6c0,0.1,0,0.2,0,0.2c0.1,2,1.7,2.9,3.4,1.9c0.6-0.4,1.1-0.9,1.7-1.4c1,0.2,1.2,0.5,0.5,1.4
		c-0.8,1-1.8,1.7-3,2.1c-1.6,0.6-3.1,0.8-4.8,0.2c-0.9-0.4-1.7-1-1.9-2c-0.2-0.9-0.4-1.8-0.4-2.7c0-5.2,0-10.5,0-15.7
		c0-0.1,0-0.2-0.1-0.5c-0.9-0.1-1.8-0.1-2.9-0.2c0-0.4-0.1-0.8-0.1-1.3c1.1,0,2-0.1,3.1-0.1c0.1-0.4,0.1-0.6,0.1-0.9
		c0-1.5,0-3,0-4.6c0-0.4,0.1-0.8,0.1-1.4C167.2,9.7,168.5,9.7,170,9.7z"/>
	<path class="st0" d="M181.8,18c-1.3,0-2.4,0-3.6,0c-0.1-0.5-0.2-0.8-0.3-1.3c1.4-0.1,2.7-0.1,4-0.2c1.3-0.1,2.6-0.2,4-0.4
		c0.3,1.5,0,2.9,0.1,4.5c0.7-0.9,1.2-1.7,1.8-2.4c1.4-1.6,3.1-2.6,5.4-2.2c1.3,0.2,2.1,0.9,2.5,2.1c0.3,1.1,0.1,2-0.9,2.6
		c-1,0.6-2.1,0.7-3-0.1c-0.7-0.6-1.1-1.4-0.9-2.3c0-0.2,0-0.4,0-0.7c-0.7,0-1.1,0.4-1.5,0.8c-1.3,1.1-2,2.6-2.6,4.2
		c-0.5,1.4-0.6,2.8-0.6,4.3c0,3,0,5.9,0,8.9c0,0.4,0.1,0.8,0.1,1.4c1.3,0,2.6,0,3.9,0c0,0.4,0.1,0.8,0.1,1.2
		c-1.1,0.3-11.3,0.3-12.3,0c-0.2-0.9-0.1-1.1,0.7-1.2c0.5-0.1,1,0,1.6,0c0.4,0,0.8,0,1.3-0.1c0.1-1.6,0-3.2,0.1-4.7
		c0-1.6,0-3.2,0-4.8c0-1.6,0-3.1,0-4.7C181.8,21.3,181.8,19.8,181.8,18z"/>
	<path class="st0" d="M115.7,17.5c-1.4,0.5-2.2,1.4-2.9,2.5c-1.3,2-1.8,4.2-1.9,6.5c-0.1,3.3,0,6.6,0,9.9c0,0.2,0.1,0.3,0.1,0.6
		c1.3,0.3,2.7,0.1,4.1,0.2c0.1,0.4,0.1,0.8,0.1,1.1c-0.9,0.3-11.2,0.3-12.4,0.1c0-0.3,0-0.7,0-1.1c1-0.3,1.8-0.1,2.7-0.1
		c0.8,0,1-0.2,1-1c0-5.8,0-11.6,0-17.4c0-0.2-0.1-0.4-0.1-0.6c-1.1-0.4-2.3,0-3.6-0.3c-0.1-0.3-0.1-0.7-0.2-1.2
		c2.7-0.2,5.3-0.4,8-0.6c0,1.4,0.1,2.8,0.1,4.2c0.1,0,0.1,0,0.2,0.1c0.1-0.2,0.3-0.4,0.4-0.6c0.9-1.5,2.1-2.8,3.8-3.5
		c1.3-0.5,2.6-0.5,3.8,0.2c1.1,0.6,1.5,1.6,1.4,2.8c-0.1,1.5-1.3,1.9-2.7,2c-1.3,0-2.2-1.3-2.2-2.1
		C115.7,18.6,115.7,18.2,115.7,17.5z"/>
	<path class="st0" d="M359.4,16.7c1.5-0.1,2.9-0.1,4.2-0.2c1.3-0.1,2.6-0.3,4-0.4c0,0.5,0.1,0.9,0.1,1.3c0,6.1,0,12.2,0,18.4
		c0,0.5,0,0.9,0.1,1.4c0.8,0,1.4,0,2,0c0.3,0,0.6,0,0.8,0.2c0.2,0.1,0.4,0.5,0.3,0.7c0,0.2-0.3,0.4-0.5,0.5c-0.2,0.1-0.5,0-0.7,0
		c-3,0-5.9,0-8.9,0c-0.2,0-0.4,0-0.6,0c-0.4,0-0.7-0.2-0.7-0.6c0-0.4,0.2-0.7,0.6-0.7c0.6,0,1.3,0,1.9,0c0.3,0,0.6,0,1,0
		c0.1-0.3,0.1-0.6,0.2-0.9c0.2-4.6,0.1-17.1-0.2-18.2c-1.1,0-2.2,0-3.4,0C359.6,17.5,359.5,17.2,359.4,16.7z"/>
	<path class="st0" d="M362.7,4.7c-0.1-1.3,0.8-2.8,2.7-2.8c1.4-0.1,2.8,1.3,2.9,2.8c0,1.7-1.2,2.8-2.8,2.9
		C364.1,7.7,362.6,6.4,362.7,4.7z"/>
</g>
</svg>
