<?xml version="1.0" encoding="utf-8"?>
<!-- Generator: Adobe Illustrator 24.1.2, SVG Export Plug-In . SVG Version: 6.00 Build 0)  -->
<svg version="1.1" id="Layer_1" xmlns="http://www.w3.org/2000/svg" xmlns:xlink="http://www.w3.org/1999/xlink" x="0px" y="0px"
	 viewBox="0 0 383 381.7" style="enable-background:new 0 0 383 381.7;" xml:space="preserve">
<style type="text/css">
	.st0{fill-rule:evenodd;clip-rule:evenodd;fill:#231F20;}
</style>
<g>
	<path class="st0" d="M225.6,39.3c2.5,0,4.6-1.9,4.6-4.3c0-2.5-2.2-4.3-4.6-4.3c-2.5,0-4.3,1.9-4.3,4.3
		C221.3,37.4,223.1,39.3,225.6,39.3L225.6,39.3z"/>
	<path class="st0" d="M165.9,31.6c2.2,0,3.7-1.9,3.7-3.7c0-2.2-1.5-3.7-3.7-3.7c-2.2,0-3.7,1.5-3.7,3.7
		C162.2,29.7,163.7,31.6,165.9,31.6L165.9,31.6z"/>
	<path class="st0" d="M121.1,123.1l-1.9-1.9c5.3-4.9,10.5-12.4,11.4-16.7c0.6-4.3,6.8-3.4,5.6,0.9
		C134.7,111.4,127.9,118.2,121.1,123.1L121.1,123.1z"/>
	<path class="st0" d="M83,33.1c-9.3,4-10.5,13.6-4,19.5c7.7,6.8,21,0.9,19.8-9.9c10.5,0.6,17.3-10.5,15.8-17.9
		c4.6-4,4.9-12.7-0.6-16.1c-6.2-3.7-11.8-2.5-15.5,4.6C88.9,12.7,79.6,20.1,83,33.1l-4.3-1.9C72.8,18.6,83,5.9,95.7,9
		c2.8-6.2,12.1-12.7,22.6-6.5c8,4.9,9.9,17.9,1.2,24.1c4,11.8-4.3,21.6-16.7,20.4C101.3,62.5,87,64.4,77.4,57.2
		c-5.3-4.3-7.4-9.9-8.4-14.2c-1.2-4.6-1.2-8.7-5.6-13.3c-3.4-3.4-9.6-3.4-9.6-3.4C53.9,15.2,43.7,5,30.7,9.9
		c-4.6-4-10.5-4.3-14.5,0.6c-2.2,2.8-3.7,10.2,3.7,13.6c-0.3,10.2,7.4,16.7,18.9,15.8c0.3,5.3,6.2,10.5,11.8,11.1l-0.3,2.8
		c-5.6-0.6-8.7,1.2-12.4,5.9c-13.3-0.6-22.6,5.6-22.3,15.2C6.3,76.4,4.5,86.3,9.7,91.6c5.3,5.3,13,3.1,15.8-3.1
		c9.6,1.9,17.9-4.9,18.2-12.7c8.7,0,12.7-3.7,14.2-11.8l3.1,0.3C62,73,58,81.4,47.4,80.4C47.1,91,37.2,96.5,27.7,93.1
		c-4.3,8.4-14.5,11.4-22.9,3.4c-8.4-7.7-5.3-21,5.6-24.4c0-10.2,7.7-19.8,22.3-16.1c0,0,1.9-4.6,6.5-4.9c-3.1-1.2-5.3-2.8-5.9-6.2
		c-11.1,2.5-20.4-7.7-17.9-17.9C5.4,21.7,5.1,11.8,10,5.9C15.3-0.3,23.9-1.5,31.4,5c13.3-7.1,27.8,1.9,26.9,16.7
		c9.3-0.6,14.8,7.1,13.6,15.5c1.5-3.7,3.4-5.3,6.8-5.9L83,33.1L83,33.1z"/>
	<path class="st0" d="M105.6,15.2l2.2,1.5C103.4,26,96,35.3,89.5,40.8L87,38.7C91.7,31.3,101.3,18.9,105.6,15.2L105.6,15.2z"/>
	<path class="st0" d="M41.9,64.7l1.2,2.5C37.9,72.4,28,79.8,22.4,82.6l-1.9-2.5C25.5,74.6,35.4,67.4,41.9,64.7L41.9,64.7z"/>
	<path class="st0" d="M54.6,38.1l-2.5,3.1c-7.1-4.6-21-17-24.1-21.6l2.2-2.2C36.9,20.7,49.9,32.5,54.6,38.1L54.6,38.1z"/>
	<path class="st0" d="M41.6,156.2c0.9,4,0,8.7,3.7,13c1.2,1.5,8.4,10.8,13.6,15.5c-7.1,2.8-21,8.7-30.9,9.9
		c-2.2,0.3-4.3,1.5-6.2,2.8c-1.2,2.2-2.5,5.9-3.1,10.2c-0.3,3.1-0.3,6.5-0.3,9.9c0,3.1,1.5,13,4.9,19.5c3.4,6.5,6.8,9.6,10.8,11.4
		c0.9-0.3,2.8-0.6,5.6-0.6c7.4-0.3,13.3,4,16.1,7.4c0.9,1.5,3.1,1.9,5.6,1.9c6.2,0,13-2.2,19.2-4.6c1.5-0.9,5.3-3.7,9-6.5
		c4-3.1,25.1-21,34.3-25.4c4.9,2.5,13,5.9,21.3,5.9c0.3,0,1.9,0.3,3.7-0.3c2.5-0.6,5.9-1.5,10.2-2.5c7.4-1.5,16.1-2.8,18.9-2.8
		c6.8,0.3,26.9,0.6,31.9,0.6s12.1-0.3,14.8-0.6c4.3-1.5,13.9-4,22.9-8c9-4,27.8-17.3,30.9-20.4c1.5-1.2,3.1-2.8,4-4
		c0.3-0.6,0.6-0.9,0.6-1.2c0-0.3-0.3-13.3-0.3-13.3s4.6-4.9,6.5-6.8c0,0,0-0.3,0-0.6c-0.9-2.5-1.5-10.5-1.2-18.6l-4.3-2.2
		c-0.3,9.9-4,18.6-7.4,24.1c-6.8,0.9-20.1,4.9-24.7,10.5l2.8,0.6c4.3-2.5,9-4,14.5-4c4.6,0,6.8,1.2,6.8,2.5c0,0.9-0.9,3.1-1.2,4
		c-0.3,0.6-0.6,1.9-1.5,2.5c-6.5,7.1-13.6,13-22.6,17.9c-5.9,3.4-11.8,5.6-20.4,8.3c-2.8,0.6-6.5,1.6-8.7,2.5
		c-3.4,0-20.7-0.6-30.9-0.6c-10.2,0-31.2,1.5-37.7,3.1c-3.1,0.9-4,2.2-7.4,2.2c-6.5,0-15.2-3.4-20.4-5.9c-0.9,0-2.8,0.9-4.6,1.9
		c-3.7,1.9-12.1,13.6-17,9.9c-2.5,5.3-13.3,9.9-16.7,15.2c0.3-2.5,4.6-20.4,4.9-24.1c0-0.6,0.3-1.2-0.3-1.9
		c-3.7-6.5-14.8-10.5-21-11.8c-1.5-0.3-2.5-0.6-3.7-0.9l-9.9-2.8l-9,2.8l10.5,1.9l-13.3,9c2.5-0.9,16.7-4.9,17.6-5.3
		c1.2-0.3,2.8-0.6,4.3,0c2.2,0.6,7.4,1.9,10.8,3.1c1.9,0.6,4.9,4,5.9,5.9c0.3,0.9,0.3,2.5,0.6,6.2c0,2.2-0.3,5.6-0.9,8
		c-1.5,6.5-4.6,11.4-5.6,13.3c-1.2,2.5-2.8,3.4-4.6,4c-2.8,1.5-6.5,2.2-10.2,2.5c-2.8,0-4.6-0.3-5.9-1.9c-3.4-4.9-12.4-9.6-21.3-7.7
		c-5.6-3.4-11.1-14.2-11.1-22.9c0-5.3,2.5-13.6,4-17.6c9-1.2,27.2-8,35.9-12.1c1.9,0,7.1-1.9,12.1-1.9c11.8,0,23.5,10.2,30.6,17.3
		c1.2-1.9,3.4-4.9,9.6-4.9c8.4,0,13.3,7.7,15.5,15.5l4.3-3.1c-0.6-4.3-3.1-9.3-6.5-13c-2.8-2.8-8.3-5.3-12.7-5.3
		c-2.8,0-5.3,0.6-7.1,0.6c-5.9,0-8.4-2.8-13-5.9c-4.6-3.1-13.6-8-20.1-8c-4,0-5.9,1.5-9.3,1.5c-4.9,0-6.8-1.9-9-4.9
		c-1.2-1.2-6.2-5.6-7.4-7.4c-0.9-1.2-2.2-5.3-2.8-7.4L41.6,156.2L41.6,156.2z"/>
	<path class="st0" d="M48.4,161.2c1.5,1.5,2.8,3.1,4.6,4.6c1.9,1.2,4,2.5,5.9,3.7c3.1,1.5,6.5,3.4,9.6,4.6c3.1,0.6,6.8,0.9,10.2,0.9
		c4.9,0,10.8-0.9,15.8,1.5c3.4,1.2,3.4,4.9,6.2,5.9c4,1.5,15.2,1.9,21.3,1.9c12.4,0,25.7-1.5,33.7-3.4l-3.7-4.3
		c-5.6,0.9-21.7,2.8-29.1,2.8c-10.2,0-20.1-1.9-20.1-5.9c0-3.1,3.1-7.4,9.3-7.4c6.5,0,16.4,4,18.2,4.6c1.9,0.3,2.5,0.3,3.7-0.3
		l3.7-1.9c-4.9-2.5-22.6-8.3-28.8-8.3c-2.8,0-4.6,0.3-6.5,2.8c-2.2,3.1-8.7,5.9-18.6,5.9c-5.6,0-13.6-1.2-15.2-1.9
		c-3.1-1.2-9-4.6-12.7-7.4c-4.9-3.4-9.3-7.4-12.1-12.1c-0.9-1.2-1.5-2.8-1.5-4.3c0-1.2,0.6-2.2,0.6-3.1c0.9,1.2,1.9,2.2,3.1,3.1
		c5.3,5.3,13,9,21,10.5c2.5,0.6,4.3,0.9,6.8,0.9c3.4,0,6.5-1.9,8.7-3.7l-3.4-3.7c-0.9,0.3-3.1,0.3-4.3,0.3c-11.8,0-26.6-7.4-30-16.4
		c-0.3-0.9-0.9-1.2-0.3-2.2c0.3-0.9,0.6-2.5,0.9-4c0.6,0.6,2.2,1.9,3.7,3.1c4.3,2.8,12.7,6.5,14.5,7.7c4-1.2,7.1-2.8,9.6-4
		c2.5-1.2,5.9-2.5,9.6-2.5c8.7,0,18.6,4.9,27.8,9.6l6.2-2.5c-8.4-5.9-26-13.9-35.9-13.9c-5.9,0-11.4,4.3-15.5,4.3
		c-4.6,0-18.2-6.8-18.2-12.4c0-4.3,8.7-6.8,23.2-8.4c-2.5,3.4-4.9,7.4-7.1,11.1l3.7,2.2c22.3-32.5,45.8-53.5,65.3-66.5
		c7.1-4.6,8.7-7.4,11.1-12.4c6.2-12.7,12.1-22,22-22c4.6,0,8.4,2.5,11.1,5.6l7.1,2.2l-7.4,4.9l7.4,3.1c-9.6,2.8-22.9,12.4-28.5,26.3
		c-10.2,0.3-15.2,9-18.6,15.8c-2.5,4.9-5.9,6.8-11.4,10.2L83,116.3l5.9,0.9L128.2,91c7.7-5.3,11.4-9.3,13.3-12.7
		c3.4-7.4,7.4-13,15.2-13c3.7,0,7.7,1.9,11.1,4.9l6.8,2.2l-7.4,4.6l6.2,3.7c-17.9,5.6-29.1,18.6-35.6,43.3l4.6,0.9
		c2.5-8,4.9-15.5,9-22.3c10.5,0,21-0.3,31.5-0.3c27.5,0,50.4,1.2,62.8,4.6l-4.3-7.4c-13.3-2.5-32.5-3.4-58.5-3.4
		c-9,0-17.6,0.3-26.6,0.3c5.9-5.9,13.9-11.1,26.6-14.8l-9-4.9l9.9-5.6l-13.6-4.9c-2.2-2.2-5.3-4.3-9-5.3c4.3-13.3,19.2-21,33.4-26.3
		l-9.9-4l9.9-5.6l-15.5-4.9c-4-4.6-7.7-6.8-13.9-6.8c-14.2,0-20.1,12.4-26,23.2c-2.8,5.9-4.6,8.4-9.9,11.8
		c-10.8,7.1-25.1,18.2-38.4,32.2C84.3,75.5,69.7,60.6,66,52.6c-1.5,1.9-3.1,6.2-3.1,6.2c1.5,1.5,18.2,18.2,24.4,25.7
		c-0.3,0.3-0.9,0.9-1.2,1.5c-6.8,1.2-24.1,3.1-30,2.2L53,94c4.3-0.3,21.3-2.5,28.8-2.8c-2.2,2.5-4.3,5.3-6.5,8
		c-22.3,2.5-36.8,7.1-36.8,15.2c0,1.2,0.3,2.8,0.3,4.3c0,3.4-1.2,4.6-3.7,6.2c-1.5,0.9-1.5,1.9-0.9,2.8c0.6,0.9,4,5.9,4,6.8
		c0,1.9-1.5,3.4-2.8,4.9c-1.2,1.2-1.2,1.5-0.3,3.1l6.5,13.6L48.4,161.2L48.4,161.2z"/>
	<path class="st0" d="M322.1,85.4c-1.2,1.2-2.5,3.1-3.7,4.6l-3.4-4.9c11.8-15.8,43.3-23.2,61.9-24.7V52c-2.5,0.6-5,1.5-7.4,2.2
		c-3.1,0.6-6.2,1.5-8.7,1.2c-2.8,0-4.9-0.9-5.9-2.5c-2.5-3.4,0-8.7,8-13.6l-6.5-5.6c-4.9,6.5-9.6,13.6-14.5,17.6
		c-4.6,4-9.3,5.9-13,3.1c-2.2-1.5-2.8-2.2-3.1-6.2c0.3-5.9,3.7-14.8,6.8-20.7l-7.4-0.9c-1.2,9-4.9,16.4-9,22.6
		c-4.6,7.7-10.8,13.3-17.3,17.6l-4.3-4c5.3-3.1,11.8-8,16.1-14.8c5.3-8,9.6-17.9,9.6-26.6l21.6,1.9c-3.1,4-8,13-9.9,19.2
		c-0.9,3.4-0.9,6.2,0.3,7.1c2.2,1.5,6.2-1.2,10.2-5.3c5.6-6.2,11.1-15.2,13.3-18.2l16.1,13c-7.1,3.7-13.9,8-12.7,10.5
		c1.2,2.2,5.9,1.5,10.8,0c4-1.2,8.4-3.1,11.8-5.3v21.3c-7.7,0-20.7,1.5-33.1,5.3c3.1,4,11.4,5.6,16.7,6.5l-2.5,17.3
		C349.3,88.8,338.8,85.7,322.1,85.4l5.6-4.9c12.1,0.3,24.4,4,31.2,7.4l0.9-6.5c-6.2-0.9-13.9-4.3-17.3-8.4
		c-5.3,1.9-10.5,4.3-14.8,7.4L322.1,85.4L322.1,85.4z"/>
	<path class="st0" d="M257.1,140.4l4.9-11.1c-5.3-6.2-11.1-13.9-16.4-22.3l-4.3-7.4c-10.2-19.2-6.5-28.5-11.8-37.1
		c-4.6-6.8-26.3-2.5-29.7-1.9l6.2-10.2l-12.4,0.9L204.3,39c1.2-1.9,1.5-3.1,2.8-7.4c1.9-6.8,7.4-17.9,24.1-17.9
		c18.2,0,24.1,14.8,31.9,21.3c9.3,7.4,21,17.6,31.5,27.8l4.3,4c5.6,5.6,10.8,11.4,16.1,18.2l3.4,4.9c22.3,32.2,49.5,93.7,61.9,121.9
		c0.9,2.8,1.9,5.6,2.8,7.7c-8.3-4.6-17.3-10.2-26.9-16.7l-5.3-3.7c-3.4-2.5-6.8-4.9-10.2-7.4l-5.6-4.6c-3.4-2.5-6.8-5.3-9.9-8
		l11.1,64c0.6,4,4,3.4,6.5,0c2.5-3.4,3.7-4.3,2.5-8.7l-10.2-47.3l5.6,4.6l9.9,39.9c0.9,3.7,2.5,4.9,6.8,4.9c4.3,0.3,4.9-1.2,4.3-4
		l-10.8-33.4l5.3,3.7l10.2,30c2.8,7.7,0,8.7-4.6,8.7c-4.3,0-8.7-1.2-11.1,0.3c-2.5,1.9-5.6,6.2-9.6,9.9c-3.1,3.4-8,2.8-9-3.7
		l-12.4-73.9c-7.7-7.1-15.5-14.5-22.3-22.3c-2.8-1.2-6.2-2.8-9.3-4l-4.3-2.2c-1.9-0.9-3.1-1.2-3.4-1.5c-3.4,4-6.8,8.7-10.5,11.8
		c-1.9,1.9-3.4,2.8-6.2,2.8c-0.9,0-2.2,0-3.1-0.6c-1.2-0.6-2.2-1.9-3.4-3.7c-0.9-1.2-2.2-3.1-3.4-4.9c-2.5-4-4.9-9.3-7.4-13.3
		c-2.5-4.6-4.9-8-5.3-8.7c-0.3-0.9-1.5-1.9-1.5-1.9c-1.5,1.9-2.5,5.9-2.5,8.4l-4.3-1.5c0.3-3.1,1.5-7.1,2.5-9c0-1.5-1.9-3.7-3.4-3.7
		c-2.2,0-4.3,2.2-5.3,6.5l-4.6,2.2c0.3-7.1,2.8-14.8,9.9-14.8c5.6,0,9.3,4.3,11.8,8.3C246.3,125.9,255.3,138,257.1,140.4l3.4,4.3
		c0.6,2.8,1.9,4.3,2.5,5.3c1.2,1.9,2.5,1.9,4.3,0c0.9-0.6,3.4-2.8,6.2-5.6c2.2-2.2,4.3-5.3,5.3-6.5c2.5,0.9,7.4,3.4,11.1,4.9
		c-16.4-20.4-32.5-45.2-39.3-61.9c-2.8-7.1,2.8-9.3,5.3-2.5c7.4,18.6,28.8,51.6,44.5,69c17.9,19.8,51,48.9,72.7,60.3
		c-3.1-6.2-7.1-14.8-12.1-25.1c-26.3-14.8-52.6-42.1-64.9-65.6l5.3,0.6c11.4,20.4,39,47.6,55.4,55.4c-14.8-31.5-34.3-71.4-49.2-88.5
		c-18.9-21.3-39.3-38-49.2-46.4c-9.6-8.7-13.6-19.2-27.2-19.2c-11.4,0-17.6,8.4-19.8,16.4c-0.6,1.9-0.9,2.8-1.9,4.3l-5.6,6.5
		l11.8-1.2l-6.8,9.3c0,0,18.2-4,24.7,4.6c6.8,9.3,2.5,19.8,13.9,40.5c4.9,9,17,25.1,21,28.8l-8,16.4L257.1,140.4L257.1,140.4z"/>
	<path class="st0" d="M77.1,143.2l-2.8-1.9c1.5-1.2,4.6-3.4,7.7-4.6c1.5-0.6,3.4-0.9,4.6-0.9c3.1,0,5.9,1.2,8.4,2.8
		c4,2.2,8.7,4.6,12.4,4.6c1.2,0,2.5-0.3,4-0.3c3.7,0,7.1,1.5,9,1.5c1.2,0,1.9-0.9,2.8-2.2c1.9-2.8,4.6-4.9,8-6.2
		c3.4-1.5,8-2.2,12.7-2.2c4,0,7.4,0.6,9.3,0.9c0,0-2.8,3.4-3.4,4.3c-4,0-11.1-0.3-15.8,1.5c-3.1,1.2-4,3.1-4,5.3c0,3.4,4,4.9,8,6.2
		c2.8,0.6,5.6,0.9,7.7,0.9c3.1,0,8.7-1.2,14.2-2.5c6.8-1.2,13-3.1,14.8-3.7l2.5,4.3c-7.4,2.5-15.2,4.9-22.3,6.2
		c-4,0.9-7.7,1.5-11.1,1.5c-5.9,0-12.1-2.5-17-4.9c-4.3-1.9-8-4-11.8-4c-3.7,0-7.4,1.2-10.8,3.4c-1.9,0.9-7.1,4.6-11.8,6.5
		c-3.7,1.2-6.5,2.2-10.2,2.2c-3.1,0-5.3-0.6-6.8-1.9l5.6-3.4c0.9,0.6,2.2,0.9,2.8,0.9c0.9,0,1.9-0.3,4-1.2c1.2-0.3,3.1-1.5,4.3-2.2
		c2.2-1.5,2.8-2.5,3.7-3.1c1.9-1.2,2.5-3.1,0.3-4.9c-1.2-0.9-2.2-1.9-3.4-2.8c-2.2-1.2-3.4-2.2-7.1-2.2
		C81.8,141.4,78.7,142.3,77.1,143.2L77.1,143.2z"/>
	<path class="st0" d="M155.7,145.4c0,0-3.4-0.9-4.3-0.9c2.2-3.1,5.3-5.6,7.4-7.1c4.6-3.1,9.3-4.9,16.7-5.3c1.9-0.3,5.9-0.6,8-0.6
		c2.2,0.3,5.6,0.3,8.7,0.9c2.2,0.3,4.3,0.9,6.2,1.2c0.9,0.3,4.6,0.3,5.9,0c5.3-0.9,11.4-2.8,14.5-4.6l1.2,4.9
		c-6.8,3.7-14.5,7.1-22,7.1c-3.4,0-7.4-0.3-11.1-0.6c-6.2-0.6-11.8-1.5-13.6-1.5C168.1,138.9,160.6,141.4,155.7,145.4L155.7,145.4z"
		/>
	<path class="st0" d="M150.7,172.9l-6.5-3.1c9-4.3,22.6-9,28.5-9.9c5.6-0.9,12.1-1.5,15.8-2.8c1.9,4.3,5.3,8.7,9.9,8.7
		c1.9,0,4.6-1.2,7.7-2.5c3.4-1.5,6.5-3.1,8.3-3.7c1.9-0.9,7.7-3.4,13-5.9c1.9-0.9,7.1-3.4,7.4-3.4l3.4,1.9
		c-0.9,4.3-2.8,9.9-4.6,13.9c-0.6,1.5-1.5,2.8-2.2,3.7c-1.5,1.5-4,4-7.1,6.2c-3.4,2.5-7.7,4.9-12.1,7.4c-3.4,1.9-6.8,4-10.5,5.6
		l-1.5-3.4c5.3-3.1,10.8-6.8,15.8-10.5c2.2-1.5,4.3-3.4,5.9-4.9c1.2-0.9,1.9-1.9,2.5-2.8c1.5-1.9,4-6.2,4.6-8
		c-2.2,0.9-9.6,4.6-13,6.2c-4,2.2-10.2,5.3-13.9,7.1c-2.5,1.2-4.9,1.9-6.8,1.9c-4,0-5.9-2.8-6.8-4.6c-2.5-4.3-4.9-4.6-12.1-4.6
		C168.4,164.9,157.2,168.3,150.7,172.9L150.7,172.9z"/>
	<path class="st0" d="M188.8,152.5c0,0-0.9-3.7-1.5-5.3c0,0,1.2-0.3,2.8-0.3c2.2,0,8.3,0.6,10.8,0.6c9.3,0,12.7-2.8,15.5-5.3
		c2.5-2.2,4.9-4,11.1-4c5.6,0,12.1,2.2,13.9,3.1l-0.3,5.3c-2.8-1.5-6.5-2.5-9.9-2.5c-2.2,0-4.3,0-5.9,0.9c-1.5,0.9-2.8,2.2-4.3,3.4
		c-1.5,1.2-3.7,2.5-6.8,3.7c-2.8,1.2-6.5,1.9-12.1,1.9C195,154,191,152.8,188.8,152.5L188.8,152.5z"/>
	<path class="st0" d="M129.4,191.2l4.3-1.9c3.7,1.5,9.6,3.4,13.6,3.4c2.5,0,4.3-0.9,5.9-1.6c1.2-0.6,15.8-7.7,22.9-10.2
		c2.2-0.9,4.6-1.2,5.6-1.2c1.9,0,1.9,0.6,2.5,1.5c1.2,2.2,12.1,17.3,13,18.2c9-2.8,18.2-6.8,23.5-11.8c5.6-5.3,10.2-11.4,14.8-16.4
		c1.5-1.9,3.7-3.4,4.6-4c4.6-2.5,19.2-2.8,25.1-2.5l-3.4,4.9c-10.8,0-16.7,1.2-19.5,3.1c-0.9,0.9-2.8,2.8-4.3,4.9
		c-3.7,4.6-7.7,11.1-9.3,12.4c3.1,2.2,6.5,4,12.1,4c9,0,15.5-5.6,18.9-8.7l3.1,1.5c-2.2,3.1-4.9,5.9-8,8c-3.7,2.5-8.4,4.3-10.8,4.9
		c-5.3-0.9-16.7-3.4-19.5-3.7c-9.9,4-26.3,10.5-31.5,12.1c-0.9,0.3-2.2,0.6-3.7,0.6c-4.3,0.3-10.2,0.3-15.8,0c-3.7,0-7.4,0-9.3-0.3
		l-4.9-4.9c4.3,0.9,5.9,0.9,9.9,0.9c9.3,0,15.5-1.5,17.3-1.9c1.9-0.6,2.2-1.5,1.5-3.1c-0.9-2.2-2.2-4.6-4.3-7.1
		c-1.2-1.2-3.7-3.4-4.6-4c-1.2-0.9-2.5-1.2-6.2,0c-3.1,0.9-13.3,6.5-17.6,9c-2.2,0.9-4,1.5-7.7,0.6
		C143,197.3,133.1,193.6,129.4,191.2L129.4,191.2z"/>
	<path class="st0" d="M157.6,78.6c1.9,0,3.7-1.9,3.7-3.7c0-2.2-1.9-3.7-3.7-3.7c-2.2,0-3.7,1.5-3.7,3.7
		C153.8,76.7,155.4,78.6,157.6,78.6L157.6,78.6z"/>
	<path class="st0" d="M297.7,292.3c0-2.8-2.5-5.3-5.6-5.3h-7.7c-3.1,0-5.6,2.5-5.6,5.3l0.3,82.9c0,2.8,2.2,5.3,5.3,5.3h7.7
		c3.1,0,5.6-2.5,5.6-5.3V292.3L297.7,292.3z"/>
	<path class="st0" d="M307.6,294.8v3.7c0,1.9,1.2,3.1,3.1,3.1h54.4c2.5,0,4.6-2.2,4.6-4.6v-6.5c0-2.5-2.2-4.9-4.6-4.6
		c0,0-52.6,5.3-54.4,5.6C308.8,291.4,307.6,292.9,307.6,294.8L307.6,294.8z"/>
	<path class="st0" d="M263.3,380.4c-13.6,0-22-10.2-22-21.6v-33.1h-4c-1.9,0-3.7-1.9-3.7-3.7v-5.6c0-2.2,1.9-3.7,3.7-3.7h4v-20.4
		c0-2.8,2.2-5.3,5.3-5.3h7.7c2.8,0,4.9,2.5,4.9,5.3v20.4h12.1c2.2,0,3.7,1.5,3.7,3.7v5.6c0,1.9-1.5,3.7-3.7,3.7h-12.1v30.6
		c0,5.9,3.7,10.2,10.2,10.2h1.2c2.2,0,4,1.5,4,4v5.9c0,2.2-1.9,4-4,4H263.3L263.3,380.4z"/>
	<path class="st0" d="M170.5,345.5c0-17.6-10.5-35.3-34.3-35.3c-22,0-34,17.3-34,35.3c0,19.2,13,36.2,34.3,36.2
		c14.5,0,28.8-7.4,31.5-20.1c0.3-1.5-0.9-4-3.1-4h-10.5c-1.9,0-3.4,0.9-4.3,2.5c-3.1,4.3-7.4,6.5-13.6,6.5
		c-9.3,0-15.5-7.1-16.1-15.2h44.2C168.7,351.4,170.5,349.2,170.5,345.5L170.5,345.5z M120.7,338.1c0.6-7.7,7.4-13.6,15.5-13.6
		c8.4,0,15.2,5.9,16.1,13.6H120.7L120.7,338.1z"/>
	<path class="st0" d="M371.6,345.5c0-17.6-10.5-35.3-34.3-35.3c-22,0-34,17.3-34,35.3c0,19.2,13,36.2,34.3,36.2
		c14.5,0,28.8-7.4,31.5-20.1c0.3-1.5-0.9-4-3.1-4h-10.5c-1.9,0-3.4,0.9-4.3,2.5c-3.1,4.3-7.4,6.5-13.9,6.5c-9,0-15.2-7.1-15.8-15.2
		h44.2C369.7,351.4,371.6,349.2,371.6,345.5L371.6,345.5z M321.8,338.1c0.6-7.7,7.4-13.6,15.5-13.6c8.4,0,15.2,5.9,15.8,13.6H321.8
		L321.8,338.1z"/>
	<path class="st0" d="M226.5,288H83.6c-3.4,0-5.9,2.8-5.9,5.9l0.3,56.3c0,0-30.6-55.7-32.2-58.5c-1.5-2.8-4.9-5.3-9.3-5.3H24.9
		c-3.4,0-5.9,2.8-5.9,5.9v82.3c0,3.4,2.5,5.9,5.9,5.9h7.4c3.4,0,5.9-2.5,5.9-5.9L37.9,317c0,0,30.9,56,32.5,58.1
		c1.5,3.1,4.6,5.3,9,5.3h10.8c3.4,0,5.9-2.5,5.9-5.9v-72.7h130.5c2.2,0,4-1.9,4-4V292C230.5,289.8,228.7,288,226.5,288L226.5,288z"
		/>
	<path class="st0" d="M203.3,323.8c6.2,0,10.8,2.2,12.7,6.2c0.6,1.9,2.2,2.2,4.3,2.2h8.7c1.2,0,3.1-1.2,3.1-3.1
		c0-9.9-12.1-18.9-28.8-18.9c-17.3,0-28.8,8.3-28.8,21.3c0,10.2,8,16.1,17.6,18.9c4.6,0.9,12.4,2.8,16.1,4c3.7,0.9,7.4,2.2,7.4,5.6
		c0,5.6-5.6,7.1-12.1,7.1c-5.9,0-11.8-2.5-13.3-6.8c-0.9-2.5-2.8-2.8-5.3-2.8h-8.7c-1.5,0-3.4,1.5-3.4,3.4v1.2
		c0,9.6,13,19.5,30.9,19.5c12.4,0,30-5.3,30-22c0-9.9-6.5-16.7-17.3-19.5c-4-0.9-13.9-3.7-16.1-4c-4-1.2-7.7-2.5-7.7-5.6
		C192.8,325.4,197.4,323.8,203.3,323.8L203.3,323.8z"/>
</g>
</svg>
