<?xml version="1.0" encoding="utf-8"?>
<!-- Generator: Adobe Illustrator 24.1.2, SVG Export Plug-In . SVG Version: 6.00 Build 0)  -->
<svg version="1.1" id="Layer_1" xmlns="http://www.w3.org/2000/svg" xmlns:xlink="http://www.w3.org/1999/xlink" x="0px" y="0px"
	 viewBox="0 0 411.3 288.2" style="enable-background:new 0 0 411.3 288.2;" xml:space="preserve">
<style type="text/css">
	.st0{fill:#231F20;}
</style>
<path class="st0" d="M402.3,45.1c-4.8-17.7-18.7-31.7-36.4-36.4C333.9,0,205.4,0,205.4,0S76.8,0.3,44.9,9
	C27.2,13.7,13.2,27.7,8.4,45.4C0,77.3,0,144.1,0,144.1s0,66.8,8.7,99c4.8,17.7,18.7,31.7,36.4,36.4c31.9,8.7,160.5,8.7,160.5,8.7
	s128.5,0,160.5-8.7c17.7-4.8,31.7-18.7,36.4-36.4c8.7-31.9,8.7-99,8.7-99S411,77.3,402.3,45.1z M164.4,205.9V82.4l106.6,61.8
	L164.4,205.9z"/>
</svg>
