<?xml version="1.0" encoding="utf-8"?>
<!-- Generator: Adobe Illustrator 24.1.2, SVG Export Plug-In . SVG Version: 6.00 Build 0)  -->
<svg version="1.1" id="Layer_1" xmlns="http://www.w3.org/2000/svg" xmlns:xlink="http://www.w3.org/1999/xlink" x="0px" y="0px"
	 viewBox="0 0 905.1 342.8" style="enable-background:new 0 0 905.1 342.8;" xml:space="preserve">
<style type="text/css">
	.st0{fill:#231F20;}
</style>
<g>
	<path class="st0" d="M49.5,328.1c8.1-14.1,15.9-27.8,23.8-41.4c3.9,1.7,7.4,3.4,11.1,4.7c30,10.6,64.2-7.6,69.5-41.7
		c1-6.2,0.9-12.6,1.3-19.9c-1.9,1.7-2.9,2.7-4,3.7c-10.9,10.8-24.3,16.6-39.4,18.6c-48.4,6.3-96.7-26.5-109.1-75.9
		c-1.9-7.5-2.5-15-2.8-22.7c-0.6-17.4,3.1-33.8,11.3-49C26.7,75.8,50.6,58,82.5,51.6c15.6-3.1,31.4-2.7,46.8,2.6
		c8.4,2.9,16,7.3,22.7,13.3c1,0.9,2,1.6,3.5,2.9c0-5.7,0-10.7,0-15.6c4-1.1,42.7-1.3,48.2-0.3c0.1,1.2,0.2,2.5,0.2,3.8
		c0,59.5,0.1,119-0.1,178.5c0,15.7-2,31.3-8.8,45.7c-14.3,30-37.3,49.9-69.9,57.4c-24.4,5.7-48.2,3-70.6-9
		C53,330.2,51.6,329.4,49.5,328.1z M154.4,151.5c0.6-28.1-22.7-53.1-52.7-53.3C71.4,97.9,47.9,123,48,151.6c0.2,30,25.1,53,53,53.1
		C130.1,204.7,154.9,180.4,154.4,151.5z"/>
	<path class="st0" d="M905.1,151.4c0,56.1-45.4,101.6-101.6,101.5c-55.4-0.1-101.3-44.3-101.3-101.3
		c-0.1-59.4,48.5-101.7,101.4-101.8C857.2,49.8,905,93.3,905.1,151.4z M803.6,204.5c29.5,0.6,53.3-24.7,53.3-53.2
		c-0.1-27.9-23-53.3-53.5-53.2c-29.8,0.1-53,24.9-53,53.1C750.3,180.9,775,205.1,803.6,204.5z"/>
	<path class="st0" d="M347.1,54.2c16.4,0,32.2,0,48.3,0c0.1,1.3,0.3,2.6,0.3,3.9c0,34.5,0.2,69-0.1,103.5c-0.1,16-2.2,31.9-8.7,46.7
		c-10.8,24.5-29.5,39.4-56,43.6c-13.4,2.1-26.9,1.6-40-2.2c-21.6-6.4-36.6-20.5-45.6-40.9c-5-11.3-7.8-23.4-8.1-35.8
		c-0.6-20.6-0.7-41.3-0.9-61.9c-0.1-17,0-34,0-51c0-1.8,0-3.6,0-5.3c4.1-1,42.5-1.2,48.7-0.3c0,1.7,0,3.5,0,5.2c0,33.7,0,67.3,0,101
		c0,9,1,17.9,3.8,26.5c4.8,14.8,19.9,23.5,36.3,18.4c8.8-2.7,14.7-8.9,17.8-17.5c2.8-7.7,4-15.8,4-24c0.1-34.7,0.1-69.3,0.1-104
		C347.1,58.4,347.1,56.6,347.1,54.2z"/>
	<path class="st0" d="M417.1,219.6c9.8-10.6,19.3-21,29.3-31.9c1.4,1.4,2.7,2.6,4,3.8c8.7,8.2,18.6,14.6,30.4,17.2
		c6.8,1.5,13.6,1.1,19.8-2.6c8.6-5.2,9.9-13.9,3.3-21.5c-3.8-4.4-8.4-7.5-13.5-10.2c-7.9-4.2-16-8.1-23.9-12.3
		c-10-5.3-19.4-11.7-27.2-20.1c-9-9.7-14.7-21-15.3-34.3c-0.7-16.9,5.7-30.9,18.2-42c11.4-10.1,24.9-14.9,40-15.6
		c19-0.9,36.2,4,51.5,15.2c3.2,2.4,6.2,5,9.1,7.8c2.6,2.6,4.8,5.5,6.8,7.7c-10.2,10.2-20.2,20.1-30,29.9c-4.1-3.2-8.8-7.1-13.9-10.6
		c-6.4-4.4-13.6-6.8-21.6-6.1c-3.7,0.3-7.2,1.4-10.1,3.7c-4.9,3.9-5.6,10.3-1.3,14.9c1.8,1.9,4,3.5,6.3,4.8
		c8.3,4.5,16.8,8.7,25.2,13c9.6,4.9,19.1,10.1,27.6,16.8c12.2,9.6,19.9,21.9,21.6,37.4c3,27.2-9,48.3-32.4,60.4
		c-8.5,4.4-17.7,6.3-27.2,7.3c-14.3,1.5-28.2-0.2-41.6-5.3C438.4,241.9,424.9,231.3,417.1,219.6z"/>
	<path class="st0" d="M628.8,53.6c19.2,0,37.7,0,56.6,0c0,14,0,27.4,0,41.5c-4.4,0.4-9,0.1-13.6,0.2c-4.8,0-9.7,0-14.5,0
		c-4.7,0-9.3,0-14,0c-4.6,0-9.2,0-14.1,0c-0.2,1.7-0.4,3-0.4,4.3c0,24.5-0.1,49,0.1,73.5c0,5.4,0.6,11,1.9,16.3
		c1.8,7.1,6.1,12.6,13.6,14.5c4.5,1.2,9,0.6,13.2-1.1c3.8-1.5,7.4-3.7,11-5.7c1.6-0.9,2.9-2.1,4.5-3.3c9.6,11.8,19,23.4,28.7,35.3
		c-1.1,1.1-2,2.3-3.1,3.2c-11.9,9.7-25.2,16.8-40.4,19.5c-18.2,3.2-35.5,0.7-50.7-10.6c-11-8.1-17.5-19.4-21.8-32.1
		c-3.3-9.8-5.1-20-5.1-30.4c-0.1-58.3-0.1-116.6-0.1-174.9c0-1,0.1-2,0.1-2.9c3.7-0.9,39.7-1.2,47.9-0.4c0.2,5.7,0.1,11.4,0.1,17.2
		c0,6,0,12,0,18C628.8,41.5,628.8,47.3,628.8,53.6z"/>
</g>
</svg>
