<?xml version="1.0" encoding="utf-8"?>
<!-- Generator: Adobe Illustrator 24.1.2, SVG Export Plug-In . SVG Version: 6.00 Build 0)  -->
<svg version="1.1" id="Layer_1" xmlns="http://www.w3.org/2000/svg" xmlns:xlink="http://www.w3.org/1999/xlink" x="0px" y="0px"
	 viewBox="0 0 288.3 297.6" style="enable-background:new 0 0 288.3 297.6;" xml:space="preserve">
<style type="text/css">
	.st0{fill:#231F20;}
</style>
<g>
	<path class="st0" d="M284.4,297.6H11c-1.7,0-2.8-1.1-2.8-2.8c0-1.7,1.1-2.8,2.8-2.8h273.3c1.7,0,2.8,1.1,2.8,2.8
		C287.1,296.5,286,297.6,284.4,297.6z"/>
	<g>
		<path class="st0" d="M49,240.3c-2.2-5-5.5-8.3-9.4-10.5c1.7-1.1,3.3-2.2,5-3.9c3.3-3.9,5-8.3,5-14.3v-5c0-4.4-1.1-8.3-3.3-12.1
			c-7.7-2.2-14.3-5.5-20.9-9.4c-5.5,0.6-10.5,2.8-13.8,6.6c-3.3,3.9-5.5,8.8-5.5,14.9v5c0,3.3,0.6,6.6,1.7,8.8
			c2.2,4.4,5,7.7,8.8,9.4c-2.2,1.1-3.9,2.8-5.5,4.4c-3.9,4.4-5.5,9.4-5.5,14.9v8.3c0,6.1,2.2,11,6.6,15.4s9.4,6.6,15.4,6.6h1.1
			c6.1,0,11-2.2,15.4-6.6s6.6-9.4,6.6-15.4v-8.3C50.7,245.2,50.2,242.5,49,240.3z M36.9,255.2c0,1.7,0,3.3-0.6,4.4
			c-1.7,3.3-3.9,5.5-7.7,5.5c-2.2,0-4.4-1.1-6.1-2.8c-1.7-1.7-2.8-4.4-2.8-7.2v-4.4c0-3.3,0.6-5.5,1.1-7.7c1.1-3.3,3.9-5,7.7-5
			c2.2,0,3.9,0.6,5,1.1c2.8,1.7,3.9,5.5,3.9,11L36.9,255.2L36.9,255.2z M35.3,218.2c-1.7,2.8-3.9,3.9-7.2,3.9s-5.5-1.1-7.2-3.3
			c-1.1-1.7-1.7-4.4-1.7-8.8c0-2.8,0-4.4,0.6-6.6c0.6-1.7,1.7-3.3,2.8-4.4c1.1-0.6,2.8-1.7,5.5-1.7c1.1,0,2.2,0,3.3,0.6
			c3.9,1.7,6.1,5.5,6.1,12.1C36.9,213.8,36.4,216.6,35.3,218.2z"/>
	</g>
	<path class="st0" d="M59.5,196.7c-2.2,3.9-3.3,9.4-3.3,15.4v2.2H70v-3.3c0-2.2,0-3.9,0.6-5.5c1.7-4.4,4.4-6.6,8.3-6.6
		c2.8,0,5,1.1,6.6,3.3c1.7,2.2,2.2,4.4,2.2,7.2c0,3.3-1.1,7.2-2.8,11c-2.2,5-5.5,10.5-9.4,16.5c-4.4,6.6-7.7,11-9.9,13.8l-3.3,5
		c-1.1,1.7-2.2,3.3-3.3,5c-2.2,3.3-3.3,5-3.3,5v12.7h44.1v-13.8H72.2c0,0,0-0.6,0.6-1.1c1.1-1.7,2.2-3.3,3.9-6.1l2.8-3.9
		c2.8-4.4,5.5-7.7,6.6-9.9c5.5-7.7,9.4-13.2,10.5-16.5c2.8-6.1,4.4-12.1,4.4-18.2c0-6.1-2.2-11.6-6.6-16c-0.6-0.6-0.6-0.6-1.1-1.1
		c-8.8,3.3-18.2,5.5-27.6,5.5C63.9,197.3,61.7,196.7,59.5,196.7z"/>
	<path class="st0" d="M130.1,184.6c-3.3,0-6.1,0.6-8.3,1.7c-3.9,1.7-7.2,4.4-9.4,8.3c-2.2,3.9-3.3,7.7-3.3,12.1l-0.6,50.2
		c0,6.1,1.7,11,5.5,15.4c3.9,4.4,8.8,6.6,14.9,6.6c5.5,0,10.5-1.7,14.3-6.1c3.9-3.9,6.1-8.8,6.6-14.9l0,0v-16
		c0-6.6-1.1-11.6-3.9-15.4c-2.8-4.4-7.7-6.6-13.8-6.6c-3.9,0-7.2,1.7-10.5,4.4v-18.2c0-2.2,0.6-4.4,1.7-5.5c1.1-1.7,2.8-2.2,5-2.2
		c2.2,0,3.9,0.6,5,2.2c1.1,1.7,1.7,3.3,1.7,5.5v2.2h14.3v-2.2c0-6.1-1.7-11-5.5-15.4C141.1,186.8,136.1,184.6,130.1,184.6z
		 M123.4,234.8c1.1-1.7,3.3-2.8,5.5-2.8c1.7,0,2.8,0.6,3.9,1.1c2.2,1.7,2.8,3.9,2.8,6.6v17.1c0,2.2-0.6,3.9-1.7,5.5
		c-1.1,1.7-2.8,2.2-5,2.2c-2.2,0-3.9-1.1-5-2.2c-1.1-1.7-1.7-3.3-1.7-5.5v-17.1C122.3,238.1,122.9,236.4,123.4,234.8z"/>
	<path class="st0" d="M182.4,185.2c-6.1,0-11,2.2-15.4,6.6s-6.6,9.4-6.6,15.4v50.2c0,6.1,2.2,11,6.6,15.4c4.4,4.4,9.4,6.6,15.4,6.6
		c6.1,0,11-2.2,15.4-6.6s6.6-9.4,6.6-15.4v-12.7h-14.3v12.7c0,2.2-0.6,3.9-2.2,5.5c-1.7,1.7-3.3,2.2-5.5,2.2c-2.2,0-3.9-0.6-5.5-2.2
		c-1.7-1.7-2.2-3.3-2.2-5.5v-50.7c0-2.2,0.6-3.9,2.2-5.5c1.7-1.7,3.3-2.2,5.5-2.2c2.2,0,3.9,0.6,5.5,2.2c1.7,1.7,2.2,3.3,2.2,5.5v11
		h14.3v-10.5c0-5.5-1.7-10.5-5.5-14.3c-5.5-2.2-10.5-4.4-14.9-7.7C183.5,185.2,183,185.2,182.4,185.2z"/>
	<path class="st0" d="M244.1,194v30.9h-16.5v-28.1c-1.1,0-2.2,0-3.3,0c-3.3,0-7.2,0-10.5-0.6v82.1h13.8v-39.1h16.5v39.1h13.8v-89.8
		C253.5,190.7,249.1,192.9,244.1,194z"/>
	<rect x="268.4" y="186.3" class="st0" width="13.8" height="92"/>
	<g>
		<path class="st0" d="M28.1,127.9c-1.7,0-2.8-1.1-2.8-2.8c0-22.6,18.2-40.8,40.8-40.8c1.7,0,2.8,1.1,2.8,2.8s-1.1,2.8-2.8,2.8
			c-19.3,0-35.3,16-35.3,35.3C30.9,126.8,29.2,127.9,28.1,127.9z"/>
		<path class="st0" d="M186.8,127.9c-1.7,0-2.8-1.1-2.8-2.8c0-22.6,18.2-40.8,40.8-40.8c1.7,0,2.8,1.1,2.8,2.8s-1.1,2.8-2.8,2.8
			c-19.3,0-35.3,16-35.3,35.3C189.6,126.8,188.5,127.9,186.8,127.9z"/>
		<path class="st0" d="M274.5,83.8L274.5,83.8l-55.1-60.6c-3.9-5-9.9-8.8-18.2-10.5C200.1,5.5,192.9,0,184.6,0
			c-9.4,0-17.1,6.6-17.1,14.9c0,1.7,0,2.8,0.6,4.4c-4.4,3.3-6.6,7.7-6.6,12.7H151c-1.1,2.8-3.3,5-6.6,5c-3.3,0-5.5-2.2-6.6-5h-5.5
			c-1.1,0-2.2,0-3.9,0l0,0c0-5-2.8-9.4-6.6-12.7c0.6-1.7,0.6-2.8,0.6-4.4c0-8.3-7.7-14.9-17.1-14.9C97,0,89.8,5.5,88.2,12.7
			c-7.7,1.7-14.3,5.5-18.2,10.5L14.9,83.8l0,0C5.5,94.8,0,109.1,0,125.1c0,35.8,29.2,65,65,65s65-29.2,65-65c0-5,0-9.4,0-15.4
			c0-5.5-0.6-17.6-1.1-30.3c5.5-1.1,9.4-5.5,9.4-11c0-1.1,0-1.7,0-2.8s0-4.4,0-7.2c1.1-1.1,2.8-2.2,5-2.2c1.7,0,3.3,0.6,4.4,1.7
			c0,2.8,0,6.1,0,7.7c0,1.1,0,1.7,0,2.8c0,6.1,5,11.6,11.6,11.6l0,0c-0.6,12.7-0.6,24.8-1.1,30.3c0,5.5,0,10.5,0,15.4
			c0,35.8,29.2,65,65,65s65-29.2,65-65C288.8,109.1,283.3,94.8,274.5,83.8z M66.1,175.8c-28.1,0-50.7-22.6-50.7-50.7
			S38,74.4,66.1,74.4s50.7,22.6,50.7,50.7C116.8,152.7,94.2,175.8,66.1,175.8z M223.7,175.8c-28.1,0-50.7-22.6-50.7-50.7
			s22.6-50.7,50.7-50.7s50.7,22.6,50.7,50.7C275,152.7,251.9,175.8,223.7,175.8z"/>
	</g>
</g>
</svg>
