<?xml version="1.0" encoding="utf-8"?>
<!-- Generator: Adobe Illustrator 24.1.2, SVG Export Plug-In . SVG Version: 6.00 Build 0)  -->
<svg version="1.1" id="Layer_1" xmlns="http://www.w3.org/2000/svg" xmlns:xlink="http://www.w3.org/1999/xlink" x="0px" y="0px"
	 viewBox="0 0 288.6 158.7" style="enable-background:new 0 0 288.6 158.7;" xml:space="preserve">
<path d="M31.3,132.3c0,1.4,0.1,2.5,0,3.7c-0.2,3.1,0,6.2-1.5,9.1c-1.4,2.7-3.9,4.2-6.7,4c-2.7-0.2-5-2-5.8-4.7
	c-0.4-1.3-0.7-2.7-0.7-4.1c-0.1-10.6-0.1-21.3,0-31.9c0-1.3,0.4-2.8,1-4c1.3-2.5,3.4-3.8,6.2-3.7c2.8,0.1,5,1.3,6,4
	c0.6,1.8,1,3.8,1.3,5.7c0.2,1.7,0,3.4,0,5.3h10.1c0.1-0.9,0.2-1.6,0.2-2.3c-0.1-2.1-0.2-4.2-0.4-6.2C39.9,97,33.5,91,23.2,90.9
	c-8.6,0-14.6,5.1-16,11.8c-0.6,2.9-1.1,5.9-1.1,8.9c-0.2,8.1-0.1,16.2,0,24.3c0,3,0.1,6,0.7,9c1.2,6.5,4.7,11.4,11.5,13
	c2.9,0.7,6,0.6,8.9,0.4c6-0.5,10.1-3.9,12.3-9.3c2.2-5.3,2.5-10.9,1.9-16.7H31.3z M10.8,66.5H21V10.4h10.8V1.1C21,1.2,10.5,1,0,1.2
	v9.3h10.8V66.5z M47.3,39h13.9c0.1,9.3-0.1,18.4,0.1,27.7c3.2,0,5.8,0,8.5,0c0.4,0,0.9-0.2,1.5-0.3v-65H61.2v27.7c-2.6,0-4.8,0-7,0
	c-2.3,0-4.5-0.1-7.1-0.1V1.3H37.1v65.2h10.2V39z M216.9,39h14c0,4.8,0,9.3,0,13.8c0,4.6,0.1,9.1,0.1,13.8h10V1.4h-10.2v27.4h-14.2
	V1.3h-9.9v65.2h10.2V39z M164.9,59.2c4.6,9.5,17.2,11.6,24.5,4c0.4-0.4,0.9-0.9,1.5-1.5c0.7,1.8,1.3,3.3,1.9,4.9h5V31.2h-18
	c-0.1,2.8-0.4,5.4,0.3,8.3h7.5c0,4.8,0.6,9.3-0.9,13.7c-1.1,3.3-3.3,4.9-6.4,4.8c-3.1-0.1-5.8-2-6.7-5.1c-0.4-1.3-0.7-2.7-0.7-4.1
	c-0.1-10.4-0.1-20.8,0-31.2c0-1.1,0.3-2.3,0.7-3.4c1.1-2.9,3.4-4.6,6.3-4.6c3,0,5.4,1.5,6.4,4.4c0.6,1.8,0.8,3.8,1.1,5.7
	c0.2,1.1,0.2,2.2,0.3,3.4h10.1c-0.2-2.6-0.2-4.9-0.5-7.1C196.3,6,189.9,0,179.6,0c-7.7,0-14.3,4.2-16.3,12.5
	c-0.6,2.3-0.8,4.8-0.9,7.2c-0.1,9.1-0.1,18.3,0,27.4C162.5,51.3,163,55.4,164.9,59.2z M56.7,92.2c-4.1,21.7-8.2,43.3-12.4,65.2h9.9
	c0.7-3.5,1.4-6.9,2.1-10.1h15.1c0.7,3.4,1.3,6.6,2,10.4c3,0,5.6,0,8.3,0c0.6,0,1.1-0.1,2.1-0.3c-4.4-21.9-8.7-43.5-13-65.2H56.7z
	 M57.9,137.1c1.8-10.4,3.7-20.6,5.5-30.9c0.1,0,0.3,0.1,0.4,0.1c1.9,10.2,3.7,20.4,5.7,30.8H57.9z M79.3,53.3
	C80.6,62,85.8,67,94.6,67.7c9.3,0.7,16.6-2.9,18.9-13c0.6-2.5,0.7-5,0.8-7.6c0.1-4.4,0-8.8,0-13.2c0,0,0,0-0.1,0
	c0-5.2,0.3-10.4-0.1-15.6c-0.6-9.7-4.4-17.1-15.8-18.1C89.5-0.5,82,2.9,79.6,12.9c-0.6,2.4-0.8,5-0.9,7.6c-0.1,8.4-0.1,16.9,0,25.3
	C78.7,48.3,78.9,50.8,79.3,53.3z M88.9,33.6c0.1,0,0.2,0,0.2,0c0-5.7-0.1-11.3,0-17c0.1-3.2,1.9-5.3,5-6.4c3.1-1.1,5.8-0.2,7.8,2.2
	c0.9,1,1.4,2.4,1.7,3.7c0.3,1.4,0.3,3,0.3,4.5c0,8.9,0,17.8,0,26.7c0,1.4-0.1,2.8-0.2,4.1c-0.5,3.9-3.5,6.6-7.2,6.7
	c-3.9,0-7.1-2.7-7.4-6.8c-0.3-3.3-0.2-6.7-0.3-10C88.9,38.7,88.9,36.2,88.9,33.6z M220.9,106.2c-1.1-9.3-6.3-14.5-15.6-15.1
	c-9.3-0.6-15.9,3-18.4,12.2c-0.7,2.4-0.9,5-0.9,7.5c-0.1,4.6,0,9.3,0,13.9c0,0,0,0,0.1,0c0,5.3-0.3,10.7,0.1,16
	c0.6,10.1,5,17.2,16,17.9c9.9,0.6,16.3-3.4,18.6-12.9c0.7-2.7,0.8-5.5,0.8-8.3c0.1-7.6,0.1-15.3,0-22.9
	C221.5,111.8,221.3,109,220.9,106.2z M211,142.1c-0.1,3.3-2.2,5.6-5.3,6.5c-2.9,0.8-5.9,0-7.7-2.5c-0.8-1.1-1.4-2.5-1.5-3.8
	c-0.2-7.1-0.3-14.3-0.4-21.4c0-3.1,0-6.2,0.1-9.4c0-1.4,0.1-2.8,0.2-4.1c0.5-4,3.7-6.9,7.5-6.8c3.8,0.1,7,3.1,7.1,7.1
	c0.2,5.7,0,11.3,0,17c0,0,0,0,0,0C211,130.6,211.2,136.4,211,142.1z M244.6,130.5h8.1c0.1,5,0,9.5-1.3,13.8c-1,3.2-3.4,4.8-6.5,4.7
	c-3-0.1-5.7-2.1-6.5-4.9c-0.5-1.7-0.8-3.4-0.8-5.1c-0.1-9.4-0.1-18.7,0-28.1c0-1.9,0.2-4,0.9-5.8c1.3-3.8,5-5.3,8.8-3.9
	c3.8,1.4,4.5,4.7,5,8.1c0.2,1.6,0,3.2,0,4.9h9.8c0.9-2.4,0.4-4.8,0.1-7.2c-0.9-8.3-5.8-15.5-16.8-16.1c-8.1-0.4-15.2,4.4-17.1,12.3
	c-0.7,2.8-1,5.7-1,8.6c-0.1,8.4-0.1,16.9,0,25.3c0.1,4,0.5,8.1,2,11.9c2.8,7,9.6,10.7,17.1,9.4c3.9-0.7,6.7-2.8,9.3-5.9
	c0.8,1.9,1.4,3.4,2,4.8h5v-35.3h-17.9V130.5z M278.4,1.3h-32v9.3h10.8v28c0,4.7,0,9.5,0,14.2c0,4.6-0.1,9.2,0.1,13.7h10.2V10.4h10.9
	C278.8,7.1,278.8,4.2,278.4,1.3z M114,92.3H82.2v9.2h11c0,4.1,0,7.8,0,11.5v22.6c0,3.7,0,7.4,0,11.1c0,3.6-0.1,7.3,0.1,10.9h10
	v-56.1H114V92.3z M168.5,92h-10v65.3c4.5,0.6,21.3,0.5,23.7-0.2v-8.8h-13.8V92z M125.4,92.2c-4.2,21.9-8.3,43.5-12.4,65.1
	c4.3,0.6,7.5,0.5,9.9-0.2c0.6-3.2,1.2-6.5,1.9-9.7h15.1c0.7,3.5,1.4,6.9,2.1,10.1h10.3c-4.4-21.9-8.8-43.6-13.1-65.3H125.4z
	 M126.5,137.1c1.8-10.2,3.6-20.1,5.4-29.9c0.3,0,0.5,0,0.8,0c1.8,9.9,3.6,19.8,5.5,29.9H126.5z M154.9,1.3h-10v3.9c0,14,0,28,0,42
	c0,2.3-0.3,4.6-0.9,6.8c-0.7,2.7-2.9,4-5.8,4.1c-3,0.1-5.5-1.2-6.3-3.9c-0.6-2.1-0.9-4.3-0.9-6.5c-0.1-14.2,0-28.5,0-42.7
	c0-1.2,0-2.5,0-3.8h-10.4v3.9c0,12.5,0,25,0,37.5c0,3.3,0.2,6.7,0.6,10c0.9,9,6.6,14.5,15.7,15.1c7.3,0.4,15.6-2.7,17.7-13.2
	c0.5-2.4,0.6-4.8,0.6-7.2c0.1-14.4,0-28.7,0-43.1C155.2,3.3,155,2.3,154.9,1.3z M278.2,89.9c-5.7,0-10.4,4.6-10.4,10.4
	c0,5.7,4.6,10.4,10.4,10.4c5.7,0,10.4-4.6,10.4-10.4C288.6,94.6,284,89.9,278.2,89.9z M278.2,109.1c-4.8,0-8.7-4-8.7-8.9
	c0-4.9,3.9-8.9,8.7-8.9c4.8,0,8.7,4,8.7,8.9C287,105.2,283,109.1,278.2,109.1z M282.3,98c0-1.9-1.6-3.4-3.6-3.4h-3.9V106h1.6v-4.6
	h1.7l2.6,4.6h1.8l-2.7-4.8C281.3,100.7,282.3,99.7,282.3,98z M276.4,100v-4h2.1c1.3,0,2.1,0.9,2.1,2c0,1.1-0.9,2-2.1,2H276.4z"/>
</svg>
