<?xml version="1.0" encoding="utf-8"?>
<!-- Generator: Adobe Illustrator 24.1.2, SVG Export Plug-In . SVG Version: 6.00 Build 0)  -->
<svg version="1.1" id="Layer_1" xmlns="http://www.w3.org/2000/svg" xmlns:xlink="http://www.w3.org/1999/xlink" x="0px" y="0px"
	 viewBox="0 0 997.7 136.3" style="enable-background:new 0 0 997.7 136.3;" xml:space="preserve">
<style type="text/css">
	.st0{fill:#231F20;}
</style>
<g>
	<path class="st0" d="M344.5,136.3c-2.6-0.8-5.3-1.6-7.9-2.4c0-0.2,0-0.3,0-0.5c0.9,0,1.9,0,2.8,0c8.6,0.5,17-0.4,24.9-4
		c15.3-6.9,23.8-18.6,24.2-35.6c0-1.5,0.2-2.9,0.3-4.8c1.6-0.2,3.1-0.3,4.5-0.5c2.4-0.5,4.8-1,7.2-1.6c2.9-0.8,4.9-2.6,5.9-5.4
		c0.8-2.1,1.9-4.2,2.8-6.3c2.1,0.3,3.1,1.4,3.2,3.6c0.2,5.6-3.6,10.8-9.2,11.9c-1.8,0.4-3.6,0.5-5.4,0.6c-4,0.3-5.3,1.5-5.6,5.4
		c-0.2,3-0.1,6-0.6,8.9c-2.8,15.3-12.7,24.1-27.2,28.6c-2.7,0.8-5.4,1.4-8.1,2.1C352.5,136.3,348.5,136.3,344.5,136.3z"/>
	<path class="st0" d="M318.1,60.5c-1.9-5.6-3.8-11-5.9-17c-1.5-0.7-3.6-1.5-5.7-2.5c-4.7-2.2-8.9-5.1-12.3-9.1
		c-8-9.4-7-23.2,1.7-31.9c1.6,0.5,3.6,0.8,5.3,1.7c4.1,2,4.8,5.4,1.7,8.8c-1.3,1.4-3,2.5-4.7,3.7c-1.2,0.8-2.5,1.5-3.7,2.2
		c-0.4,9.6,7.4,18.1,19,20.8c0.5-1.1,1.2-2.2,1.6-3.3c4.8-11.7,13.9-17.8,26.2-19.3c5.9-0.7,12-1.1,17.8,0.8c3.1,1,6.2,2.4,8.9,4.3
		c7,5,7.4,14.1,0.7,19.5c-3.1,2.5-7.1,4.4-10.9,5.6c-8,2.4-16.2,3.5-24.6,2.4c-2.1-0.3-4.3-0.2-6.3-0.3c-0.9,4.2-0.8,4.8,2.1,10.4
		c1.4-0.2,3-0.5,4.6-0.7c5.3-0.7,10.6-1,15.8,0.9c3.2,1.2,6.1,3,6.5,6.8c0.3,3.1-2.3,6.8-6.1,8.4c-4.3,1.8-8.8,1.9-13.2,0.3
		c-3.7-1.3-7.2-3.3-11.3-5.2c-3.9,2.3-6.3,6.4-8.2,10.8c-5.6,12.7-3,26.1,7,34.3c15.4,12.7,41.4,8.7,51.3-10.6
		c2.6-5.1,2.2-10.5,1.9-15.9c-3.3-1-14.8-1.3-17.3-0.4c-5.4,1.7-6.6,5.9-2.8,11c1.2-0.3,2.6-0.8,4-1c1.8-0.3,4-0.7,4.9,1.2
		c0.6,1.3,0.1,3.1,0,4.7c0,0.4-0.5,0.8-1.2,1.7c-2.2-0.3-4.6-0.4-7-1c-4.8-1.2-7.9-4.2-8.5-9.2c-0.6-5.2,1.2-9.5,5.7-12.4
		c3.8-2.4,8-3.2,12.4-2.8c6.4,0.6,12.9,1.7,19.3,2.3c3.9,0.4,8,1.4,11.5-2.1c-0.4-1.3-1-2.7-1.2-4.1c-0.7-4.3,1.7-6.3,5.8-4.7
		c0.8,0.3,1.4,0.8,2.1,1.1c1.5,8.1-3.3,14.3-11.3,14.8c-7.7,0.5-8.1,0.9-8.4,8.3c-0.5,15.6-8,26.7-22.4,32.8
		c-14.3,6-28.6,5.5-42.3-1.9c-21.7-11.7-26.2-42.9-8.5-59.4C314.1,63.4,316.3,61.9,318.1,60.5z M326.7,40c1,0.4,1.8,0.9,2.6,0.9
		c5.8,0.1,11.7,0.4,17.4-0.1c4.8-0.4,9.4-2,13.2-5.3c2.6-2.3,4.5-5,3.7-8.7c-0.7-3.4-3.6-4.7-6.5-5.5
		C344.1,17.7,328.6,24.5,326.7,40z M331.6,62.9c3.6,4,7.3,6,12.2,5.1c1.9-0.3,3.5-1.2,3.8-3.3c0.2-2.3-1.5-3.3-3.3-3.7
		C340.1,60.2,335.9,60,331.6,62.9z"/>
	<path class="st0" d="M171.7,73.4c5.7,3.3,8.1,8.5,9.8,14.1c0.1,0.3,0.2,0.6,0.3,1c3.1,8.1,2.1,8,10.8,10.6
		c-0.4,1.8-0.9,3.7-1.4,6.1c-4.8,0-9.6,0.4-14.4-0.2c-1.7-0.2-3.8-2.2-4.7-3.9c-1.7-3.1-2.8-6.7-4.1-10.1c-1-2.6-1.6-5.4-2.7-8
		c-1.9-4.4-5.2-6.7-10.1-6.5c-4,0.2-7.9,0-12.4,0c-0.4,6.4-0.3,12.4-0.1,18.5c0.1,2.9,3,2.7,4.8,4c-0.4,1.7-0.8,3.5-1.1,5.1
		c-3.5,1.2-15.2,1.4-21.1,0.4c-0.5-1.7-1-3.6-1.4-5.3c5.1-2.6,5.1-2.6,5.1-8.1c0-13.7-0.1-27.5,0-41.2c0-3.7-0.4-6.7-5.2-7.2
		c0.6-2.2,1-4.1,1.5-6.2c1.3-0.1,2.4-0.3,3.5-0.3c10.3,0,20.6,0,31,0c4.7,0,9.3,1,13.5,2.9c6.4,2.9,10.2,7.8,10.7,14.9
		c0.5,7.4-1.9,13.3-8.4,17.3C174.3,71.9,173.2,72.6,171.7,73.4z M142.7,67.9c6.6-0.3,12.5-0.3,18.4-0.9c5.9-0.6,9.4-5,9.4-10.4
		c0-5.7-2.1-10-9-11.3c-6.1-1.2-12.4-0.4-18.8-0.4C142.7,52.7,142.7,59.8,142.7,67.9z"/>
	<path class="st0" d="M582,98.8c-0.6,2.2-1,4.1-1.5,6.1c-6.9,0-13.5,0-20.5,0c-0.5-1.8-1.1-3.7-1.7-5.9c5.1-0.9,5.2-4.4,5.1-8.3
		c-0.1-5.4,0-10.8,0-16.5c-11.3,0-22.1,0-33.2,0c-0.2,1.2-0.5,2.4-0.5,3.7c-0.1,4.5,0.1,8.9-0.1,13.4c-0.1,3.6,0.3,6.7,5,7.4
		c-0.5,2.2-1,4.1-1.5,6.2c-7,0-13.7,0-20.8,0c-0.5-2-1-3.8-1.5-5.9c1.5-0.7,2.9-1.3,4.6-2c0.2-2.2,0.7-4.5,0.7-6.7
		c0.1-13.1,0-26.1,0-39.2c0-0.3,0-0.7,0-1c-0.2-5.3-0.3-5.5-5.2-7.9c0.5-1.9,1-3.7,1.5-5.7c7,0,13.6,0,20.7,0c0.5,1.8,1,3.6,1.6,5.7
		c-1.5,0.8-2.9,1.6-4.6,2.6c0,6.3,0,12.7,0,19.3c11,0,21.8,0,33.1,0c0.3-6.5,0.2-12.8,0-19.2c-1.8-1-3.2-1.8-4.7-2.7
		c0.5-1.7,0.9-3.5,1.5-5.5c6.8,0,13.5,0,20.7,0c0.5,1.7,1,3.6,1.6,5.8c-4.7,0.8-5.4,4.1-5.4,8.1c0.1,13.6,0,27.1,0,40.7
		C576.6,94.8,577.3,98,582,98.8z"/>
	<path class="st0" d="M844.9,71.1c-0.9,4.8-1.3,9.8-2.8,14.5c-3,9.9-9.9,16.2-20,18.9c-7.9,2.1-15.8,2.3-23.6,0.4
		c-12.8-3-20.4-11.2-23.1-23.8c-1.6-7.5-1.4-15.1,0.5-22.6c2.9-11.7,10.2-19,21.9-22c7.9-2,15.8-2,23.7,0.1
		c12.8,3.3,21,12.9,22.5,26c0.3,2.8,0.4,5.6,0.5,8.4C844.6,71,844.8,71.1,844.9,71.1z M788.5,70.7c0.2,0,0.4,0,0.6,0.1
		c0,2.1-0.2,4.3,0,6.4c1.1,11.9,7.1,18.2,19,19c10.5,0.7,18.7-3.2,21.1-15.1c1.5-7.1,1.5-14.1-0.1-21.1c-0.5-2.2-1.4-4.4-2.5-6.4
		c-1.8-3.5-4.8-5.9-8.6-7.1c-4.3-1.4-8.7-1.8-13.3-1c-8.2,1.5-13,6.3-14.8,14.1C789.2,63.2,789,67,788.5,70.7z"/>
	<path class="st0" d="M742.1,93.1c0-4.8,0-9.7,0-15.1c-2.3-0.7-4.4-1.4-6.7-2.1c0.4-1.9,0.8-3.8,1.4-6.1c4.1,0,8,0,12,0
		c4,0,7.9,0,12.1,0c0.5,2.2,1,4,1.4,5.8c-0.5,0.4-0.7,0.8-1,0.9c-5.7,1.2-6.1,1.5-6.2,7c0,1.7,0,3.3,0,5c0.1,3.6,0.1,3.6,3,6.6
		c-0.4,1.6-0.8,3.3-1.2,5c-11.9,4.2-23.7,7.5-36.6,5.4c-15.7-2.6-26.3-13.3-28.3-28.9c-0.7-5.4-0.4-10.6,0.8-15.7
		c3.1-13,11.5-21,24.4-24.2c13-3.3,25.4-1.2,37.1,5.1c0.4,0.2,0.8,0.6,1.4,1.1c-1,4.1-2,8.2-3,12.7c-1.5,0.1-2.9,0.2-4.4,0.3
		c-4.5-9.9-12.8-11.7-22.2-10.6c-10.2,1.1-16.6,7.2-19.1,16.9c-1.4,5.5-1.4,11.1-0.2,16.7c2.4,11.7,11,18,24,17.8
		C735.3,96.5,738.5,95.3,742.1,93.1z"/>
	<path class="st0" d="M45,70.1c8.1,0,15.9,0,24,0c0.3,1,0.6,2.1,0.9,3.2c0.2,0.9,0.4,1.9,0.6,2.7c-2.3,0.8-4.5,1.5-6.9,2.3
		c0,4.5-0.2,8.6,0.1,12.7c0.1,1.4,1.4,2.7,2.5,4.6c-0.3,1.2-0.6,2.9-1,4.8c-9.6,2.8-18.9,6.7-29.2,5.8c-4.6-0.4-9.3-0.9-13.7-2.3
		C8.5,99.4,1.3,89.4,0.1,75c-0.4-5,0-10.3,1.2-15.2C4,48.7,11.2,41.1,22.1,37.6c14.4-4.7,28.1-2.5,41.8,4.9c-1,4.4-2,8.6-3.1,13.1
		c-1.5,0.1-2.8,0.2-4,0.3c-6.7-10-16.3-13.3-27.6-9.5c-7.8,2.6-12.2,8.3-14.1,16c-1.5,5.9-1.4,11.8,0.1,17.7
		c2.9,11.2,11.2,16.9,24,16.5c3.9-0.1,7.9-0.9,11.7-3.4c0-3.5,0-7.1,0-10.7c-0.1-4.2-0.6-4.7-4.7-5.6c-0.6-0.1-1.3-0.2-2.4-0.3
		C44.1,74.1,44.5,72.2,45,70.1z"/>
	<path class="st0" d="M907.2,96.5c-1.6-4.1-3-7.7-4.5-11.5c-9.7,0-19.2,0-29,0c-1.4,3.9-2.8,7.7-4.3,11.6c1.8,1,3,1.7,4.5,2.4
		c-0.4,1.8-0.8,3.5-1.2,5.1c-3.5,1.1-12.4,1.3-18.8,0.4c-0.4-1.7-0.9-3.5-1.4-5.8c4.3-0.7,5.7-3.9,7.1-7.4
		c6-15.2,12.1-30.4,18.2-45.6c0.1-0.3,0.1-0.6,0.2-1.4c-1.2-0.8-2.5-1.6-4-2.6c0.4-1.7,0.9-3.4,1.4-5.4c9.3,0,18.5,0,28.1,0
		c0.5,1.8,1,3.6,1.6,5.5c-1.5,0.8-2.7,1.5-4.1,2.3c0.4,1.3,0.7,2.3,1.1,3.4c5.9,14.7,11.8,29.4,17.6,44.2c1.3,3.2,2.6,6.1,6.8,6.7
		c-0.4,2.1-0.7,4-1,6c-3.7,1-7.2,0.4-10.7,0.5c-3.3,0.1-6.6,0-10.3,0c-0.6-2-1.1-3.9-1.6-5.9C904.2,98.4,905.4,97.6,907.2,96.5z
		 M899.4,75.6c-3.8-10.4-7.4-20.1-10.8-29.5c-3.7,9.6-7.4,19.4-11.2,29.5C884.8,75.6,891.7,75.6,899.4,75.6z"/>
	<path class="st0" d="M597.7,104.8c-0.5-1.9-1-3.6-1.6-5.7c5.6-1,5.3-5.1,5.3-9.2c0-13.2,0-26.5,0-39.7c0-5.4-0.1-5.5-5-8
		c0.1-0.8,0.1-1.6,0.3-2.4c0.3-1.1,0.7-2.2,1.1-3.3c16.1,0,32,0,48.2,0c0,4.6,0,9,0,13.9c-1.5,0.5-3.2,1-4.9,1.5
		c-2.1-7.1-3.7-6.4-8.5-6.7c-5.6-0.3-11.3-0.1-17.4-0.1c-0.5,6.6-0.1,12.8-0.2,19.3c1.2,0.2,2.3,0.5,3.4,0.5c3.8,0.1,7.7,0.1,11.5,0
		c4.9-0.1,4.9-0.1,7.7-4.4c1.4,0.4,3,0.8,4.6,1.3c0,5.1,0,9.9,0,14.9c-1.5,0.6-3,1.1-4.6,1.7c-1-1.4-1.6-3.1-2.9-3.8
		c-1.5-0.8-3.5-0.8-5.3-0.8c-4.6-0.1-9.2,0-14.1,0c0,7.5,0,14.4,0,21.6c1.3,0.2,2.5,0.4,3.8,0.4c5.5,0,11-0.1,16.5,0.1
		c4.8,0.2,8.6-0.8,9.6-6.6c2,0.3,3.7,0.6,5.8,1c-0.5,5-1,9.5-1.5,13.9C645.4,105.3,606.1,105.6,597.7,104.8z"/>
	<path class="st0" d="M952.4,45.7c-4.3,0-8.8-0.1-13.2,0c-3.7,0.1-4.6,3.3-5.8,6.3c-1.8-0.4-3.3-0.8-5.4-1.3c0.5-4.8,1-9.5,1.6-14.3
		c20.4,0,40.5,0,60.9,0c0.5,4.7,1,9.2,1.6,14.2c-2,0.5-3.6,1-5.6,1.5c-1-5.9-4.8-6.9-9.6-6.6c-3.1,0.2-6.2,0-9.6,0
		c-0.2,1.7-0.4,3-0.4,4.3c0,13.9,0.1,27.8-0.1,41.6c0,3.7,0.5,6.6,5.2,7.2c-0.5,2.2-1,4.1-1.5,6.2c-6.9,0-13.7,0-20.6,0
		c-0.3-1.1-0.6-2-0.8-2.9c-0.2-0.8-0.4-1.6-0.7-2.7c1.3-0.8,2.7-1.5,4-2.3C953.3,93.1,953.5,51.3,952.4,45.7z"/>
	<path class="st0" d="M499.4,36.7c0.5,4.6,1,9,1.5,13.8c-1.7,0.5-3.4,1.1-5.3,1.7c-0.5-1.2-0.9-2-1.3-2.9c-1-2.5-2.8-3.6-5.4-3.6
		c-4.1,0-8.3,0-12.8,0c-0.2,1.5-0.5,2.7-0.5,4c0,14,0,28.1-0.1,42.1c0,3.5,0.6,6.3,5,7c-0.4,2.2-0.8,4.1-1.2,6.2
		c-7.1,0-13.8,0-20.9,0c-0.5-1.9-0.9-3.6-1.4-5.6c1.4-0.9,2.8-1.7,4.1-2.4c1.1-4,1.5-44.1,0.4-51c-4.6-0.4-9.4-0.5-14.1,0
		c-3.2,0.3-4,3.1-5.1,6.2c-1.7-0.4-3.4-0.8-5.5-1.2c0.5-4.8,1-9.3,1.4-13.8C442.1,36,491.5,35.8,499.4,36.7z"/>
	<path class="st0" d="M221.5,95.7c7.7,0,15.3,0.1,22.9,0c3.9-0.1,5.1-3.2,6.1-6.6c1.8,0.4,3.5,0.7,5.8,1.2c-0.5,4.8-1,9.5-1.5,14
		c-3.9,1.1-43.3,1.4-50.7,0.5c-0.3-0.8-0.7-1.7-1-2.6c-0.2-0.9-0.3-1.9-0.5-3.2c4.4-1.1,5.1-4.2,5.1-8.2c-0.2-13.5-0.1-27.1,0-40.6
		c0-3.6-0.4-6.7-5.2-7.3c0.5-2.2,0.9-4.1,1.4-6.2c6.9,0,13.7,0,20.8,0c0.5,1.9,1,3.8,1.5,6c-3.7,0.6-5.3,2.8-5.3,6.4
		c0.1,15,0.1,30.1,0.1,45.1C220.9,94.4,221.1,94.7,221.5,95.7z"/>
	<path class="st0" d="M105.9,104.9c-7.1,0-13.7,0-20.5,0c-0.5-2-1-3.8-1.6-6.1c5.2-0.7,5.2-4.2,5.1-8.1c-0.1-13.5-0.1-27.1,0-40.6
		c0-3.9-0.5-6.9-5.1-7.6c0.5-2.1,0.9-3.8,1.4-6.1c3.4-0.1,6.8-0.1,10.2-0.2c3.3,0,6.6,0,10.2,0c0.6,2,1.1,3.9,1.8,6
		c-0.7,0.3-1.4,0.7-2.1,1c-2.2,0.8-3,2.4-2.9,4.6c0,1.8,0,3.6,0,5.4c0,12.7,0.1,25.4,0,38.1c0,3.6,0.2,6.7,5,7.3
		C106.9,100.8,106.5,102.6,105.9,104.9z"/>
	<path class="st0" d="M847.2,60c2.9,5.3,3.4,10.4,3.4,15.4c0,5.5-0.6,11.3-2.1,16.6c-2.6,9.4-8.9,15.8-18.3,18.7
		c-10.8,3.3-21.6,3.1-32.1-1.3c-0.8-0.3-1.5-0.8-2.1-1.7c1.7,0.3,3.5,0.7,5.2,0.9c1.8,0.2,3.6,0.5,5.5,0.5
		c11.8,0.4,22.8-1.6,31.5-10.6c5.5-5.8,8.1-12.8,8.9-20.5c0.5-4.2,0.1-8.5,0.2-12.8C847.2,63.7,847.2,62.2,847.2,60z"/>
	<path class="st0" d="M376.6,27.1c4.7,5.3,4.8,11.4,0.7,16.2c-2.6,3.1-6.1,5-9.9,6.4c-7.4,2.7-15.1,3.6-23,3.3
		c-3.1-0.1-6.3-0.5-9.4-0.5c-1.3,0-2.6,0.8-4.2,1.3c-0.4-1-0.8-2-1.3-3.2c0.9-0.2,1.5-0.4,2.1-0.3c7.3,0.3,14.6,0.6,21.8-1.1
		c3.5-0.8,7.1-1.7,10.4-3.1C371.6,42.5,377,37.1,376.6,27.1z"/>
	<path class="st0" d="M655.4,112.1c-10.6,0-20.4,0-30.2,0c-6.1,0-12.3,0-18.4,0c-2.1,0-3.7-0.5-3.2-3.7c15.9,0,31.9,0,48.2,0
		c0.6-4.2,1.2-7.9,1.8-11.8c1.3,0.3,2.2,0.5,3.5,0.8C656.4,102.3,655.9,107,655.4,112.1z"/>
	<path class="st0" d="M257.1,108.4c0.6-4.1,1.2-7.6,1.7-11.4c1,0,1.9,0,3.3,0c0.3,4.9-1,9.7-1.3,14.3c-4,1-45.1,1.2-50.8,0.3
		c-0.1-0.8-0.3-1.7-0.6-3.2C225.5,108.4,241.2,108.4,257.1,108.4z"/>
	<path class="st0" d="M20.6,83.7c-4.3-9-4.6-17.9-0.2-26.6c0.9-1.9,2.5-3.5,4.1-4.9c6.4-5.3,17.5-5.6,25.4-0.5c-2.4,0-4,0-5.7,0
		c-13.6,0-22.6,8.2-23.6,21.6C20.4,76.8,20.6,80.2,20.6,83.7z"/>
	<path class="st0" d="M711.8,83.5c-3.7-8.2-3.9-16.5-0.6-24.8c2.1-5.2,6.2-8.5,11.7-9.8c6.5-1.6,12.8-1.4,19.6,3.1
		c-9.9-0.7-18.3-0.1-24.6,7.1C711.9,66.1,711.8,74.7,711.8,83.5z"/>
	<path class="st0" d="M482,52.3c0,2.2,0,4,0,5.8c0,10.9,0,21.8,0,32.7c0,1.5,0.7,3.4-1.7,4.5c-0.5-0.6-1.4-1.3-1.5-2
		c-0.3-1.6-0.2-3.3-0.2-4.9c0-11.6,0-23.1,0-34.7c0-1.6,0.1-3.2,0.2-5.1c4.1-0.4,7.9-1,11.5,0.5c0.7,0.3,1,1.4,1.8,2.6
		C488.4,52,485.4,52.1,482,52.3z"/>
	<path class="st0" d="M67.6,102.9c0.5-1.6,0.9-3.4,1.4-5.1c1.1,1.3,2.2,2.5,3.5,4c-0.3,1.4-0.7,3.1-1.2,5.1c-8.6,2.7-17.1,6-26.4,6
		c-6.1,0-15.3-0.6-22.9-5.4c3.9,0.5,7,0.9,10.1,1.3c8,1,15.8-0.1,23.5-2.5C59.4,105.2,63.2,104.2,67.6,102.9z"/>
	<path class="st0" d="M714.9,107.6c2.6,0.4,5.2,0.8,7.8,1.1c9.4,1.3,18.4-0.1,27.3-3.2c2.8-1,5.7-1.5,9.1-2.4c0.4-1.3,0.9-3,1.6-5.1
		c0.6,1.7,1.1,3.2,1.7,4.8c0.6-0.4,1.2-0.9,1.8-1.3c-0.4,1.9-0.9,3.8-1.3,5.7c-8.5,2.2-16.4,5.7-25.3,5.7
		C729.7,112.9,721.9,112,714.9,107.6z"/>
	<path class="st0" d="M229.3,45.9c0.3-1,0.5-1.7,1.1-3.6c0.8,3,1.3,4.9,1.9,6.9c-5,1.9-5,1.9-5,7.2c0,10.2,0,20.4,0,30.6
		c0,1.6,0,3.3,0,5.2c-1,0.1-1.8,0.2-2.9,0.4c0-15.5,0-30.7,0-46.1C226,46.2,227.5,46.1,229.3,45.9z"/>
	<path class="st0" d="M970.2,48.8c8.7-1.1,10.4-0.8,12.6,2.6c-3,1.5-6.2,0.1-9.7,1.2c-0.1,1.3-0.2,2.9-0.2,4.5c0,11.1,0,22.1,0,33.2
		c0,1.6-0.1,3.2-0.2,5.5c-1.3-0.9-2.2-1.1-2.5-1.7c-0.3-0.7-0.2-1.6-0.2-2.4c0-13.5,0-27.1,0-40.6C970,50.3,970.1,49.7,970.2,48.8z"
		/>
	<path class="st0" d="M581.1,95.7c-0.5-1.3-1.2-2.2-1.2-3c0-14.9,0-29.8,0-44.6c0-0.5,0.3-0.9,0.6-1.6c1.4-0.2,2.8-0.4,4.4-0.6
		c0.3-0.8,0.6-1.7,1.4-3.7c0.8,3,1.3,4.9,1.9,7.3c-4.8,0.2-5.3,3.2-5.3,6.9c0.1,11.4,0,22.8,0,34.2
		C582.9,92.2,583.5,93.9,581.1,95.7z"/>
	<path class="st0" d="M106,46.3c1.6-0.1,3.1-0.2,4.6-0.3c0.3-0.9,0.5-1.8,1-3.9c0.8,3.1,1.4,5.1,2,7.4c-4.9,0.2-5.2,3.4-5.2,7
		c0.1,11.1,0,22.2,0,33.2c0,1.3,0.2,2.7-0.2,3.9c-0.2,0.6-1.2,1.1-2.4,2.1C106,78.8,106,62.7,106,46.3z"/>
	<path class="st0" d="M321.9,105.8c-7.2-10.5-5.5-25,3.9-34.6c1.5,0.9,3.1,1.9,4.8,2.9C320.5,86,320.5,94.9,321.9,105.8z"/>
	<path class="st0" d="M560,77.2c0,1.3,0,2.1,0,3.3c-8,0-15.9,0-24.3,0c-0.2,5.1-0.3,9.8-0.5,15.5c-1.4-1.3-2.6-1.8-2.6-2.3
		c-0.1-5.4-0.1-10.8-0.1-16.4C541.9,77.2,550.7,77.2,560,77.2z"/>
	<path class="st0" d="M875.7,88.2c8.4,0,16.4,0,24.6,0c0.5,1,1,1.9,1.7,3.4c-7.4,0-14.3,0-21.2,0c-0.9,1.3-1.7,2.3-2.5,3.5
		c-1.3,0-2.8,0-4.5,0C873.4,92.4,875.1,90.7,875.7,88.2z"/>
	<path class="st0" d="M181,77.9c-1.2-1.4-2.2-2.7-3.4-4.2c6.7-5.1,10.2-11.7,9-20.9C193,61,190.2,72.5,181,77.9z"/>
	<path class="st0" d="M301.1,22.1c0,1.3,0,2.4,0,4c-2.7-2.2-3.3-4.7-3.7-7.6c4.2-3,8.9-5.4,10.5-10.8c3.9,2.1,4.8,4.8,2.3,7.7
		c-1.5,1.7-3.4,3.1-5.3,4.4C303.8,20.8,302.4,21.3,301.1,22.1z"/>
	<path class="st0" d="M359.2,65c4.7,3.9,4.3,9-0.9,11.3c-0.9,0.4-2,0.5-2.7,1.1c-5,3.6-9.9,2.4-16.1-0.4
		C349.7,77.5,356.6,74.5,359.2,65z"/>
	<path class="st0" d="M91.1,108.4c5.7,0,11.2,0,16.7,0c0.7-1.4,1.2-2.5,1.9-3.9c1.2,0.3,2.4,0.6,3.9,0.9c-0.5,2.2-0.9,4-1.5,6.3
		c-1.6,0.1-3.2,0.3-4.8,0.3c-4.3,0-8.6,0-12.9,0C92.2,112.1,90.7,111.6,91.1,108.4z"/>
	<path class="st0" d="M584.2,104.5c1.2,0.3,2.3,0.5,3.9,0.9c-0.5,2.2-1,4.2-1.5,6.4c-6.8,0-13.4,0-20.3,0c-0.3-0.8-0.6-1.8-1.1-3.2
		c5.9,0,11.2,0,16.7,0C582.7,107.2,583.3,106.1,584.2,104.5z"/>
	<path class="st0" d="M153.6,105.4c-0.5,2.2-1,4.1-1.5,6.4c-2,0.1-3.9,0.2-5.8,0.3c-4.2,0-8.3,0-12.5,0c-2.1,0-3.1-0.8-2.8-3.5
		c5.5,0,11.1,0,16.6,0c0.8-1.5,1.4-2.7,2.1-4C150.9,104.8,152.1,105.1,153.6,105.4z"/>
	<path class="st0" d="M621.1,52.2c-0.2,3.2-0.3,6.2-0.5,9.1c-1.8,0.6-2.7,0.2-2.7-1.4c-0.1-3.8,0-7.5,0-11.7c6,0,11.4-0.1,16.8,0
		c1.4,0,2.6,0.7,2.5,2.9C632.1,52.7,626.6,51.1,621.1,52.2z"/>
	<path class="st0" d="M978,105.1c-0.6,2.5-1,4.4-1.5,6.6c-6.8,0-13.5,0-20.4,0c-0.3-0.8-0.7-1.7-1.2-3.1c5.9,0,11.5,0,17,0
		c0.5-0.9,0.9-1.4,1.2-1.9c0.3-0.6,0.5-1.2,0.9-2C975.1,104.8,976.2,104.9,978,105.1z"/>
	<path class="st0" d="M910.5,112.1c-0.2-1.4-0.4-2.2-0.6-3.5c5.8,0,11.3,0,16.9,0c0.8-1.5,1.3-2.6,2-4c1.1,0.3,2.4,0.5,3.8,0.8
		c-0.5,2.2-0.9,4.1-1.4,6c-3.6,1.1-7,0.4-10.5,0.6C917.5,112.2,914.2,112.1,910.5,112.1z"/>
	<path class="st0" d="M464.6,108.6c5.3,0,10.7,0,16.3,0c0.8-1.4,1.5-2.7,2.2-4c1.1,0.2,2.2,0.4,3.8,0.8c-0.5,2.3-1,4.3-1.5,6.8
		c-6.5,0-12.7,0.1-18.9,0C464.6,112,464,110.7,464.6,108.6z"/>
	<path class="st0" d="M534.7,108.5c0.7-1.4,1.3-2.6,2-3.9c1.1,0.2,2.2,0.4,3.9,0.7c-0.5,2.2-0.9,4.2-1.4,6.5c-6.8,0-13.4,0-20.3,0
		c-0.3-0.8-0.7-1.8-1.4-3.3C523.5,108.5,529.1,108.5,534.7,108.5z"/>
	<path class="st0" d="M620.3,92.7c-0.9-0.3-1.8-0.3-1.8-0.5c-0.4-4.8-0.6-9.7-0.9-14.4c4.2-1.1,10.4-1.2,15.5-0.4
		c0.1,0.8,0.1,1.7,0.2,3c-4,0-7.8,0-11.7,0C620,84.6,621.7,88.6,620.3,92.7z"/>
	<path class="st0" d="M149,83.7c-0.4,3.9-0.8,7.6-1.3,11.2c0,0.1-0.9,0.1-1.8,0.2c-1-5-0.6-10-0.2-15.5c5.5,0.5,11-1.7,16.2,2.8
		C157.4,84.2,153.2,82.6,149,83.7z"/>
	<path class="st0" d="M874.2,108.5c0.7-1.5,1.3-2.7,1.9-4c1.3,0.3,2.4,0.5,3.9,0.8c-0.5,2.2-1,4.2-1.5,6.5c-6.2,0-12.1,0-18.2,0
		c-0.4-1-0.7-1.8-1.3-3.3C864.4,108.5,869.3,108.5,874.2,108.5z"/>
	<path class="st0" d="M939.6,59.1c-2.2-0.7-3.7-1.2-5.4-1.7c0.9-1.4,1.7-2.5,2.3-3.7c0.5-1.2,0.6-2.5,0.9-3.8c3.8-2.8,8-1,12.2-1.6
		c0.1,1.4,0.2,2.3,0.2,3.5C945,52.1,940.6,52.9,939.6,59.1z"/>
	<path class="st0" d="M448.6,59c-1.9-0.5-3.5-1-5-1.4c1.1-2.8,2.1-5.4,3.2-8.2c3.5-2,7.5-0.9,11.4-1c0.3,0.5,0.7,0.8,0.9,1.3
		c0.1,0.4,0,1,0,1.8C454.5,52.4,449.3,52.4,448.6,59z"/>
	<path class="st0" d="M197.2,112.1c-4.7,0-9.2,0-13.6,0c-2,0-3.4-1.1-4.5-3.4c4.8,0,9.2,0,13.6,0c0.9-1.5,1.6-2.6,2.4-3.9
		c1.1,0.2,2.2,0.4,3.7,0.7C198.2,107.7,197.7,109.7,197.2,112.1z"/>
	<path class="st0" d="M753.2,60c3.6-3.5,2.5-8.5,5-12.5c1.2,0.6,2.4,1.2,3.7,1.9c-1.1,4.5-2.1,8.6-3.1,12.6
		C755.1,62.9,755.1,62.9,753.2,60z"/>
	<path class="st0" d="M532.5,46.4c2.2-0.2,3.8-0.4,5.3-0.5c0.3-1,0.5-1.7,0.8-2.7c1.9,1.7,1.3,4,2.2,6.3c-4.8,0-5.4,3.2-5.4,6.7
		c0,1.4-0.2,2.9-0.3,4.1c-1.8,0.8-2.6,0.2-2.7-1.2C532.5,55.1,532.5,51,532.5,46.4z"/>
	<path class="st0" d="M66.4,47.5c1,0.5,2.1,1,3.6,1.7c-1,4.3-2,8.6-3,13c-2.5,0.7-4.7,1.3-5.5-2.2C65.2,56.8,63.8,51.5,66.4,47.5z"
		/>
	<path class="st0" d="M760.4,90.7c-2.6-1.6-2.7-2.2-1.8-10.5c2.2-0.2,4.4-0.3,6.9-0.5c0.3-0.8,0.5-1.6,0.8-2.5
		c1.2,0.3,1.3,0.6,1.9,5.7c-1.9,0.7-4.3,0.9-5.6,2.2C761.3,86.2,761.2,88.5,760.4,90.7z"/>
	<path class="st0" d="M66.8,91c0-3.9,0-7.1,0-10.8c2.3-0.2,4.6-0.3,6.9-0.5c0.2-1,0.5-1.8,0.9-3.6c1.4,2.7,1.8,4.8,2,7.3
		c-1.1,0.1-1.9,0.1-2.7,0.3c-3.3,0.5-3.7,1-4.4,4.3C69.2,89.5,69.2,89.5,66.8,91z"/>
	<path class="st0" d="M648.5,83.8c-2.3,0.6-3.6,1-5.1,1.4c-0.8-1.5-1.5-2.7-2.3-4.2c1.2-0.5,2.5-1.1,4.3-2c0-3.5,0-7.2,0-11.4
		c1.2,0.7,2.2,0.9,2.3,1.2C648,73.7,648.2,78.6,648.5,83.8z"/>
	<path class="st0" d="M647.1,58.5c-0.4-1.5-0.8-2.8-1.2-4.2c1.1-0.6,2.2-1.2,3.2-1.8c0.8-8.6,0.8-8.6,3-9.4
		c0.6,4.6,0.3,9.1,0.2,14.1C650.6,57.6,648.9,58,647.1,58.5z"/>
	<path class="st0" d="M991.1,54.7c1.3-0.6,2.5-1.2,3.7-1.8c0-3.2,0-6.4,0-9.8c2.3,1.6,3.2,6.8,2.7,14.4c-0.8,0.3-1.7,0.7-2.6,1
		c-0.6,0.2-1.3,0.2-2.2,0.3C992.2,57.4,991.7,56.1,991.1,54.7z"/>
	<path class="st0" d="M503.3,43.4c2.8,2.4,3.6,7.2,3.4,14.1c-1.4,0.5-3,1-4.9,1.6c-0.6-1.5-1.1-2.8-1.7-4.3c1.5-0.8,2.7-1.4,4.1-2.1
		C503.8,49.4,503.6,46.4,503.3,43.4z"/>
	<path class="st0" d="M375.3,88.9c-3,3.5-6,1.9-8.5,2.7c-2.6,0.8-5.4,1.3-8.4,2c-0.1-0.9-0.5-1.9-0.2-2.3c0.8-0.9,1.8-2.1,2.9-2.3
		C365.4,88.3,369.8,88.3,375.3,88.9z"/>
	<path class="st0" d="M906.6,50.8c-0.6-1.3-1.1-2.5-1.7-4.1c1.3-0.3,2.3-0.6,3.6-0.9c0.2-0.7,0.5-1.5,1.1-3.2
		c0.6,2.7,1.1,4.6,1.6,6.6C909.5,49.8,908.1,50.3,906.6,50.8z"/>
	<path class="st0" d="M366.7,106.4c2.2-1.4,1.5-5.1,5-4.6c-2.9,6.9-4.7,7.8-9.6,5C363.8,106.6,365.2,106.5,366.7,106.4z"/>
	<path class="st0" d="M335.5,38.1c-1.7-0.1-3.2-0.3-4.6-0.4c0.8-11.1,16.1-17.8,27.1-12.5c-4,1.1-8.4,2-12.6,3.5
		C341,30.4,338.2,33.9,335.5,38.1z"/>
	<path class="st0" d="M343.5,64c-1.7,2.2-3.3,1-5,0C340.1,64,341.8,64,343.5,64z"/>
	<path class="st0" d="M148.7,64.1c-2.7,0.8-3.3-0.2-3.3-1.8c0-4.6,0-9.2,0-13.7c7.9-2.1,16.6-0.9,20.3,2.8c-5.8,0-11.1,0-17,0
		C148.7,55.9,148.7,60,148.7,64.1z"/>
	<path class="st0" d="M821.1,51.4c-4.5,0.4-8.2,0.6-11.7,1.2c-6.7,1.2-10.7,5.6-12.8,11.8c-1.6,4.8-1.8,9.7-1.7,14.6c0,2,0,3.9,0,6
		c-0.3-0.3-0.7-0.4-0.8-0.6c-3.2-9.4-3.3-18.8,0.2-28c1.6-4.1,4.8-6.6,9.2-7.6C809.5,47.5,815.2,47.6,821.1,51.4z"/>
	<path class="st0" d="M888.2,55.9c2.8,3.7,3.3,7.1,1.3,10.9c-0.9,1.7-1.5,3.6-2.3,5.6c-1.7,0-3.3,0-5.4,0
		C883.9,66.7,886,61.5,888.2,55.9z"/>
</g>
</svg>
