<?xml version="1.0" encoding="utf-8"?>
<!-- Generator: Adobe Illustrator 24.1.2, SVG Export Plug-In . SVG Version: 6.00 Build 0)  -->
<svg version="1.1" id="Layer_1" xmlns="http://www.w3.org/2000/svg" xmlns:xlink="http://www.w3.org/1999/xlink" x="0px" y="0px"
	 viewBox="0 0 259.8 64.6" style="enable-background:new 0 0 259.8 64.6;" xml:space="preserve">
<style type="text/css">
	.st0{fill:#231F20;}
</style>
<g id="layer1" transform="translate(-622.20982,-799.62783)">
	<g id="g4379" transform="matrix(1.25,0,0,-1.25,667.21232,811.71408)">
		<path id="path4381" class="st0" d="M58.5-15.3c6.6,2.2,7.8,7.7,7.7,12.2c0,6.9-4.9,12.8-19.2,12.8l-26.8,0v-51.6H47
			c14.4,0,19.7,7.4,19.7,14.8C66.7-18.1,58.5-15.3,58.5-15.3 M33-1.5h18l0.1,0c2-0.4,3.5-2.1,3.5-4.1c0-2.1-1.6-4-3.7-4.3L33-10
			L33-1.5z M50.1-29.9H33v8.6h17.6l0,0c2.2-0.2,3.8-2.1,3.8-4.2C54.4-27.8,52.5-29.8,50.1-29.9"/>
	</g>
	<g id="g4383" transform="matrix(1.25,0,0,-1.25,699.47732,799.88283)">
		<path id="path4385" class="st0" d="M100.8,0.2H146l0-11.3h-32.6l0-8.3h29.4v-11.3h-29.4v-9h32.6l0-11.8h-45.2"/>
	</g>
	<g id="g4387" transform="matrix(1.25,0,0,-1.25,687.02107,799.91283)">
		<path id="path4389" class="st0" d="M84.5,0.2H57.1v-51.6h12.6v20.9l13.8,0c4-0.1,7-3.3,7-7.3v-13.5l12.3,0l0,16.6
			c0,7.7-7.5,10-7.5,10s7.6,2.3,7.6,11.4C103-2.2,93.4,0.2,84.5,0.2 M91.3-15.8c-0.2-1.7-1.9-3.5-4-3.5l-17.7,0v8.3h17.7
			c2.1,0,3.8-1.5,4-3.6"/>
	</g>
	<g id="g4391" transform="matrix(1.25,0,0,-1.25,645.26232,818.43658)">
		<path id="path4393" class="st0" d="M29.7-24.1c-0.2,0-17.2-0.3-23,0.2C-2.8-23-6.1-16-6.1-10.3c0,7.1,4.9,12.4,12.4,13.3
			c3.6,0.5,23.1,0.2,23.3,0.2l0.4,0l0,11.7h-0.4L7.5,15C5,14.8,1,14.6-3.2,12.9c-4-1.8-7.5-4.7-10.1-8.2c-3.3-4.5-5.1-9.8-5.1-15.4
			c0-1.8,0.1-3.5,0.4-5.2c1.6-7.8,6.7-14.3,14.1-17.8c2.5-1.1,6.3-2.4,14-2.8l4.2-0.1l15.4,0h0.4l0,12.4"/>
	</g>
</g>
</svg>
