<?xml version="1.0" encoding="utf-8"?>
<!-- Generator: Adobe Illustrator 24.1.2, SVG Export Plug-In . SVG Version: 6.00 Build 0)  -->
<svg version="1.1" id="Layer_1" xmlns="http://www.w3.org/2000/svg" xmlns:xlink="http://www.w3.org/1999/xlink" x="0px" y="0px"
	 viewBox="0 0 4199.5 434" style="enable-background:new 0 0 4199.5 434;" xml:space="preserve">
<style type="text/css">
	.st0{fill:#231F20;}
</style>
<g>
	<path class="st0" d="M3836.8,5.9c1.9-0.1,3.7-0.3,5.5-0.3c60.5,0,121,0,181.4,0c24.5,0,48.5,3.6,71.7,11.5
		c13.8,4.6,26.8,11,38.2,20.3c16.4,13.4,26.7,30.4,29.9,51.4c2.7,17.5,1.1,34.5-5.7,50.9c-4.6,11.1-11.6,20.4-20.3,28.7
		c-14.4,13.7-31.7,21.8-50.7,26.7c-8.5,2.2-17.3,3.4-26,5c-0.8,0.2-1.6,0.3-2.4,0.6c-0.2,0.1-0.3,0.5-0.8,1.4c3.1,0.4,5.9,1,8.8,1.2
		c16.2,1.2,32,4.4,47.3,9.9c17.1,6.2,32.6,15,45.1,28.5c11.4,12.4,18.2,26.9,20.7,43.5c2.1,13.6,1.8,27.2-1,40.7
		c-4.5,21.1-15.2,38.4-32.1,51.9c-14.4,11.5-31,18.6-48.6,23.7c-16.4,4.7-33.1,7.5-50.1,8.3c-10.8,0.5-21.6,0.9-32.4,1
		c-57.1,0.1-114.3,0-171.4,0c-2.3,0-4.6-0.2-6.3-0.2c-0.7-0.6-0.8-0.7-0.9-0.8c-0.1-0.1-0.2-0.3-0.2-0.4c-0.1-1.3-0.3-2.6-0.3-4
		c0-132.4,0.1-264.8,0.1-397.2C3836.2,7.6,3836.5,7.2,3836.8,5.9z M3942.5,361.1c0.4,0.2,0.8,0.6,1.3,0.7c1.3,0.2,2.7,0.3,4,0.3
		c20.6-0.4,41.3,0.8,61.9-0.8c12.4-1,24.4-3.3,35.7-8.6c9.8-4.5,17.5-11.4,22.5-21.1c4.6-9.1,6.6-18.7,7.5-28.7
		c1.1-12-0.1-23.6-3.5-35c-4.2-14.1-12.8-24.5-26-31.3c-14-7.2-29-9.8-44.4-10.2c-18-0.5-36-0.2-54-0.2c-1.8,0-3.5,0.4-5.1,0.5
		C3941.3,231.9,3941.4,357.1,3942.5,361.1z M3940.9,178.7c2.4,0.2,4.3,0.5,6.3,0.5c16.8-0.2,33.6-0.4,50.4-0.8
		c9.2-0.2,18.2-2,26.8-5.1c15-5.4,25.6-15.5,30.1-30.9c5.4-18.3,5.3-36.8-0.8-54.9c-4.2-12.5-12.7-21.1-24.9-26.3
		c-10.4-4.4-21.4-6.3-32.6-6.6c-16.8-0.5-33.6-0.2-50.4-0.2c-1.6,0-3.2,0.4-5,0.6C3940.9,96.3,3940.9,137.1,3940.9,178.7z"/>
	<path class="st0" d="M1760.5,410.4c-1.7,0.1-3.1,0.3-4.6,0.3c-12.7,0-25.3-0.1-38,0.1c-3.1,0-5.3-0.9-7.3-3.3
		c-8.9-10.6-17.9-21-26.9-31.5c-8.8-10.2-17.5-20.5-26.2-30.7c-8.5-10-17.1-20-25.6-30c-9.1-10.6-18.2-21.2-27.2-31.8
		c-8.8-10.2-17.5-20.5-26.2-30.7c-8.6-10.1-17.3-20.2-26-30.3c-8.5-10-17.1-20-25.6-30c-8.9-10.4-17.7-20.7-26.6-31.1
		c-5-5.8-9.9-11.6-14.9-17.5c-1.2-1.3-2.4-2.6-4.2-4.6c-0.4,1.9-0.7,2.9-0.8,4c-0.1,1.7,0,3.3,0,5c0,84.8,0,169.7,0,254.5
		c0,2.3,0,4.6,0,7.3c-2,0.2-3.4,0.6-4.8,0.6c-22,0-44,0-66,0c-1.3,0-2.6-0.2-4.2-0.4c-0.3-1.3-0.6-2.3-0.7-3.4c-0.1-1.5,0-3,0-4.5
		c0-129.6,0-259.1,0-388.7c0-2.3,0-4.6,0-7.5c2.5-0.2,4.5-0.6,6.6-0.6c25.2,0,50.3,0,75.5,0c5.7,0,11.3,0.1,17,0
		c2.7,0,4.6,0.8,6.4,3c13.4,15.9,26.9,31.7,40.4,47.5c14.7,17.2,29.5,34.3,44.2,51.5c14.3,16.7,28.4,33.5,42.6,50.2
		c12.6,14.8,25.4,29.5,38,44.3c2.8,3.3,5.6,6.5,8.9,10.4c0.5-1.8,0.9-2.9,1-3.9c0.1-1.7,0-3.3,0-5c0-63.4,0-126.7,0-190.1
		c0-2.3,0.2-4.6,0.3-6.7c4.3-1.4,69.7-1.5,74.5-0.4C1761.3,9.9,1761.6,403.7,1760.5,410.4z"/>
	<path class="st0" d="M498.8,6c2.7-0.2,4.5-0.4,6.3-0.4c63.1,0,126.3,0,189.4,0c22.5,0,44.5,3,66,9.4c20.6,6.1,39.4,15.4,54.7,30.8
		c14.8,15,23,33.1,25.4,54c1.6,13,1.2,25.9-1.9,38.6c-6.5,26.6-21.8,47-44.2,62.5c-12.2,8.4-25.5,14.4-39.5,18.8
		c-1.1,0.3-2.1,0.7-4,1.4c1.3,0.8,2,1.4,2.8,1.7c25,9.6,40.5,28.4,50.6,52.2c4.3,10,6.7,20.5,9.1,31.1c3.4,14.8,8.5,29,17.3,41.7
		c4,5.8,8.8,10.8,14.7,14.7c6.4,4.2,13.4,6.6,21.1,6.6c2,0,4,0,6.4,0c3.2,10.8,4.7,21.6,7.4,32.5c-1.7,0.9-3.1,1.8-4.6,2.4
		c-16.3,6.6-33.1,11.5-50.6,13.3c-10.4,1-20.9,1.1-31.4-0.6c-12.5-2.1-23.2-7.9-33.1-15.5c-14.3-11-23-25.7-28.4-42.5
		c-4.1-12.8-7.6-25.8-11.3-38.8c-4-14.3-9.6-28-18-40.4c-15.3-22.5-36.7-34.2-63.7-35.6c-9.6-0.5-19.3-0.6-28.9-0.8
		c-1.8,0-3.6,0.2-5.1,0.3c-2.2,2.3-1.6,4.7-1.6,7c0,31.1,0,62.2,0,93.3c0,20.1,0,40.3,0,60.4c0,1.9-0.2,3.9-0.3,5.6
		c-4.4,1.2-98.9,1.4-104,0.2c-0.2-1.1-0.4-2.4-0.5-3.7c-0.1-1.3,0-2.7,0-4c0-129.4,0-258.8,0-388.2C498.8,11.6,498.8,9.2,498.8,6z
		 M604.3,53.7c-0.2,1.8-0.6,3.4-0.6,5c0,41.9,0,83.8,0,125.7c0,1.7,0.5,3.5,0.7,5.4c1.7,0.2,3,0.5,4.3,0.5
		c20.3-0.2,40.6-0.4,60.9-0.8c11.4-0.2,22.5-2.8,33.1-7c17-6.8,28.9-18.6,34.8-36.1c3.3-9.8,3.5-19.9,3.3-30.1
		c-0.5-24.9-14.8-45.6-37.8-55c-12.7-5.2-25.9-7.5-39.4-7.8c-18.1-0.4-36.3-0.1-54.5-0.1C607.7,53.3,606.2,53.5,604.3,53.7z"/>
	<path class="st0" d="M2249.7,6c-2,2.2-3.2,3.6-4.4,4.8c-19.8,19.9-39.7,39.8-59.6,59.8c-24.6,24.8-49.2,49.7-73.7,74.6
		c-2,2-3.7,4.2-5.4,6.2c1.3,4,38.1,58.2,58.2,86.7c19.9,28.3,39.2,57,58.8,85.5c19.7,28.6,39.3,57.3,58.8,85.7
		c-0.3,0.6-0.3,0.8-0.4,0.9c-0.1,0.1-0.3,0.3-0.4,0.3c-1,0.1-2,0.2-3,0.2c-39,0-78,0-116.9-0.1c-0.6,0-1.3-0.3-2.2-0.5
		c-4.3-6.1-8.7-12.4-13-18.7c-19.2-28.2-38.4-56.4-57.6-84.6c-15.6-23-31.3-45.9-47-68.8c-2.3-3.4-4.7-6.8-7.1-10.2
		c-0.5-0.8-1.3-1.4-2.1-2.3c-1.2,1-2.2,1.8-3.2,2.7c-12.2,12.3-24.4,24.5-36.6,36.8c-0.5,0.5-0.9,1-1.4,1.4
		c-3.3,3.2-4.5,6.9-4.5,11.6c0.2,41.7,0.1,83.5,0.1,125.2c0,2.1,0,4.3,0,6.9c-1.9,0.2-3.3,0.6-4.7,0.6c-32.2,0-64.3,0-96.5,0
		c-1.1,0-2.3-0.2-3.7-0.4c-0.2-1.2-0.6-2.3-0.7-3.4c-0.1-1.5,0-3,0-4.5c0-129.6,0-259.1,0-388.7c0-2.5,0.2-4.9,0.2-7.2
		c4.3-1.3,99.9-1.5,105-0.1c0.1,2.1,0.3,4.4,0.3,6.6c0,53.7,0,107.4,0,161.2c0,2.1,0.2,4.2,0.3,7.1c1.5-1.1,2.3-1.6,3-2.2
		c1.6-1.7,3.2-3.4,4.8-5.1c11.6-12,23.2-23.9,34.7-35.9c13.7-14.3,27.4-28.6,41-42.9c13.8-14.4,27.6-28.9,41.4-43.3
		c13.4-14.1,26.9-28.1,40.3-42.3c2.9-3.1,5.9-4.2,10.1-4.2c26.7,0.1,53.3,0.1,80,0.1C2244.6,5.6,2246.5,5.8,2249.7,6z"/>
	<path class="st0" d="M946.9,6.5c5-1.1,101.2-1.2,105.9-0.2c0.2,1,0.6,2.1,0.6,3.2c0.1,1.7,0,3.3,0,5c0,76.3,0,152.7,0,229
		c0,14.3,1.2,28.5,4,42.6c2.5,12.8,6.9,25.1,14,36.1c11.9,18.6,29.3,29.1,50.9,32.8c5.7,1,11.6,1.9,17.3,1.8
		c9.5-0.2,18.9-1.8,27.8-5.3c17.7-6.9,29.2-19.9,36.7-36.8c5.4-12.3,8.2-25.2,9.6-38.6s1.8-26.8,1.8-40.3c-0.1-74.2,0-148.4,0-222.5
		c0-2.3,0.2-4.5,0.3-6.6c4.4-1.3,69.9-1.5,75-0.2c0.1,1.5,0.3,3.1,0.3,4.7c0,78.7,0.2,157.3-0.1,236c-0.1,19.4-1.6,38.8-6.7,57.8
		c-5.4,20.4-13.9,39.1-26.9,55.8c-10.4,13.3-23,23.9-37.6,32.3c-19.8,11.4-41.2,17.5-63.7,20.7c-17.3,2.4-34.6,2.6-51.8,1.6
		c-22.7-1.3-44.9-6-65.9-14.9c-28.8-12.2-51.9-31-68.2-57.8c-10.9-18-17.5-37.6-20.6-58.4c-2.2-15-2.9-30.1-2.9-45.2
		c0.1-75.2,0-150.4,0-225.5C946.9,11.2,946.9,8.9,946.9,6.5z"/>
	<path class="st0" d="M3396.1,6.7c5-1.4,99.6-1.4,104.5-0.1c0.1,2.1,0.4,4.3,0.4,6.6c0,77-0.1,154,0.1,231c0,17.8,1.6,35.5,6.8,52.7
		c4.2,14,10.5,26.9,21,37.5c11.3,11.4,25.3,17.6,40.8,20.6c5.1,0.9,10.2,1.9,15.3,1.9c27.8-0.2,50.2-10.3,64-35.8
		c7.4-13.7,11-28.5,13.1-43.7c1.9-14,2-28.2,2-42.3c-0.1-73.9,0-147.7,0-221.6c0-2.3,0-4.6,0-7.3c2.2-0.2,3.8-0.5,5.4-0.5
		c21.7,0,43.3,0,65,0c1.5,0,2.9,0.2,4.9,0.4c0.2,2.3,0.4,4.4,0.4,6.5c0,33.4,0,66.9,0,100.3c0,44.6-0.1,89.2,0,133.7
		c0,18.9-1.6,37.5-6,55.9c-7,29.4-20.7,55-43.4,75.3c-12.9,11.5-27.8,19.9-44,26s-32.9,9.4-50.1,11.1c-14.3,1.4-28.7,1.5-42.9,0.6
		c-27.9-1.7-54.7-8-79.5-21.3c-23.9-12.8-42.9-30.7-56.4-54.3c-10.2-17.7-16.1-36.8-19.2-56.8c-1.5-9.9-2.2-19.8-2.2-29.8
		c0-80.3,0-160.7,0-241C3396.1,10.4,3396.1,8.6,3396.1,6.7z"/>
	<path class="st0" d="M2957.3,81.4c-11.9,13.3-23.7,26.3-35.7,39.7c-2.7-3.8-5.1-7.2-7.5-10.5c-11.9-16.9-25.8-31.7-43.6-42.7
		c-13.5-8.3-28.1-13.7-43.9-15.7c-15.7-2-31.3-1.3-46.6,2.5c-25.2,6.2-45,20.2-59.6,41.6c-11.5,16.9-18.2,35.8-22.4,55.6
		c-3.2,15.2-4.6,30.5-5.4,46c-0.5,9.5-0.1,19,0.5,28.4c1.8,26.4,7.5,52,19.9,75.6c9.5,18.1,22.2,33.5,39.6,44.8
		c14.1,9.1,29.4,14.6,46.1,16.5c21.5,2.4,42.2-0.7,62.2-8.4c13.2-5.1,24.9-12.7,35.2-22.3c8.4-7.9,15.9-16.6,22.2-26.2
		c0.8-1.2,1.8-2.3,3-4c11.9,9.5,23,19.4,34.6,29.4c-1.2,2.2-2,4.1-3.2,5.9c-16.7,24.3-38,43.5-64,57.4c-22,11.7-45.6,18.7-70.3,21.5
		c-20.4,2.3-40.9,2.1-61.3-0.5c-19.3-2.4-38-7-56.1-14c-20.8-8.1-39.9-19-57-33.4c-16.3-13.7-30.1-29.6-40.9-48
		c-10.3-17.5-17.4-36.2-22.1-55.9c-5.4-22.9-6.3-46.2-4.6-69.4c3.1-42.9,17.4-81.8,44.4-115.6c15.6-19.5,34.3-35.8,56-48.4
		c26-15.1,53.8-24.5,83.6-28.6c11.9-1.7,23.9-2.7,35.8-2.5c31.6,0.3,62.3,5.7,91.1,19.5c27.6,13.2,50.5,32,67.4,57.8
		C2955.6,78.4,2956.2,79.5,2957.3,81.4z"/>
	<path class="st0" d="M269.5,410.4c-35.4,0-70,0-104.8,0c-0.3-1.3-0.6-2.4-0.7-3.5c-0.1-1.7,0-3.3,0-5c0-107.8,0-215.5,0-323.3
		c0-2.4-0.2-4.9-0.3-7.8c-2.7-0.2-5-0.4-7.2-0.4c-45,0-90,0-134.9,0c-2.1,0-4.3,0-6.2,0c-1.3-4.1-1.6-56.8-0.6-64
		c0.9-0.2,2-0.6,3.1-0.7c1.5-0.1,3-0.1,4.5-0.1c129.4,0,258.9,0,388.3,0c2.4,0,4.9,0.2,7.1,0.3c1.2,4.6,1.3,59,0.1,64.1
		c-2.1,0.1-4.4,0.4-6.6,0.4c-44.6,0-89.3,0-133.9,0c-2.3,0-4.6,0.2-7.3,0.4c-0.2,2.3-0.4,4.3-0.4,6.2c0,17.8,0,35.6,0,53.4
		c0,90.8,0,181.6,0,272.4C269.5,405.1,269.5,407.4,269.5,410.4z"/>
	<path class="st0" d="M3150.4,345.4c2.7,0.2,4.9,0.5,7.2,0.5c34.8,0,69.6,0,104.4,0c25,0,50,0,75,0c2,0,3.9,0,5.7,0
		c1.4,4,1.8,55.6,0.7,64c-0.9,0.2-2,0.6-3.1,0.8c-1.3,0.1-2.7,0.1-4,0.1c-94.8,0-189.6,0-284.3,0c-2.3,0-4.6-0.2-6.7-0.3
		c-1.2-4.9-1.1-399.6,0.1-404.3c1.6-0.2,3.3-0.5,5.1-0.5c31.3,0,62.6,0,93.9,0c1.6,0,3.2,0.2,5.3,0.4c0.1,2.8,0.3,5.2,0.3,7.7
		c0,107.9,0,215.8,0,323.8C3150,339.9,3150.2,342.3,3150.4,345.4z"/>
</g>
</svg>
