<?xml version="1.0" encoding="utf-8"?>
<!-- Generator: Adobe Illustrator 24.1.2, SVG Export Plug-In . SVG Version: 6.00 Build 0)  -->
<svg version="1.1" id="Layer_1" xmlns="http://www.w3.org/2000/svg" xmlns:xlink="http://www.w3.org/1999/xlink" x="0px" y="0px"
	 viewBox="0 0 437.3 341.6" style="enable-background:new 0 0 437.3 341.6;" xml:space="preserve">
<style type="text/css">
	.st0{fill:#231F20;}
</style>
<g>
	<g>
		<path id="wordmark_2_" class="st0" d="M48.9,274H38.4c-0.6,0-1.1,0.5-1.1,1.1v5.6c-2.7-4.3-8.1-7.8-15.4-7.8
			c-11.7,0-21.9,8.9-21.9,24.6s9.7,24.4,22.4,24.4c6.8,0,12.2-2.9,15.2-7.3v3c0,6.8-3.3,12.2-14,12.2c-5.4,0-9.7-1.7-13.3-5.1
			c-0.5-0.5-1.3-0.3-1.6,0.2L4,332.9c-0.6,1-0.5,1.6-0.2,1.9c4.9,4.3,11.1,6.8,20.3,6.8c20,0,25.9-11.1,25.9-23.3V275
			C50,274.5,49.5,274,48.9,274z M25.4,310.5c-7.1,0-12.4-5.1-12.4-12.7s5.2-12.7,12.4-12.7s12.4,4.9,12.4,12.7
			C37.8,305.6,32.5,310.5,25.4,310.5z M72.8,256.2v64.3c0,0.6-0.5,1.1-1.1,1.1H61.2c-0.6,0-1.1-0.5-1.1-1.1v-64.3
			c0-0.6,0.5-1.1,1.1-1.1h10.5C72.3,255.1,72.8,255.6,72.8,256.2z M103.9,273c-10,0-17.5,3.3-20.8,9.8c-0.2,0.5,0,1.1,0.3,1.3
			l7.6,5.4c0.5,0.3,1.1,0.2,1.4-0.3c2.1-3.8,6.8-5.1,11.4-5.1c5.6,0,8.3,2.1,8.3,4.8v0.8c0,1.1-0.6,1.7-2.5,1.9l-13,1.1
			c-8.7,0.8-15.2,6.2-15.2,14.9s6.7,14.8,16,14.8c7.5,0,12.2-3.6,14.6-7.5v5.4c0,0.6,0.5,1.1,1.1,1.1h10.5c0.6,0,1.1-0.5,1.1-1.1
			v-28.2C124.7,279.1,117.7,273,103.9,273z M112.2,302.4c0,5.2-4.3,9.8-10.9,9.8c-4.4,0-6.7-2.1-6.7-5.1c0-2.7,2.1-4.6,5.9-5.2
			l11.7-1.4V302.4z M174.5,307.2c0,10.8-7.9,15.4-20.5,15.4c-8.7,0-16.2-2.4-20.5-7.1c-0.3-0.3-0.3-1,0-1.4l6-7.8
			c0.3-0.5,1.1-0.5,1.6,0c3.2,3.3,8.1,5.2,14.1,5.2c3.5,0,6.3-1,6.3-3.6c0-2.5-2.5-3.2-10.5-4.9c-7-1.4-15.7-4.6-15.7-14.9
			c0-9.5,7.6-15.1,20-15.1c8.3,0,14.1,2.5,18.2,6.3c0.5,0.3,0.5,1,0.2,1.4l-5.7,7.5c-0.3,0.5-1.1,0.6-1.4,0.2
			c-2.9-2.5-7.5-4.1-12.1-4.1c-4,0-6,1.3-6,3.3c0,2.4,2.5,3,10.9,4.8C167.5,294.1,174.5,297.2,174.5,307.2z M222.8,307.2
			c0,10.8-7.9,15.4-20.5,15.4c-8.7,0-16.2-2.4-20.5-7.1c-0.3-0.3-0.3-1,0-1.4l6-7.8c0.3-0.5,1.1-0.5,1.6,0c3.2,3.3,8.1,5.2,14.1,5.2
			c3.5,0,6.3-1,6.3-3.6c0-2.5-2.5-3.2-10.5-4.9c-7-1.4-15.7-4.6-15.7-14.9c0-9.5,7.6-15.1,20-15.1c8.3,0,14.1,2.5,18.2,6.3
			c0.5,0.3,0.5,1,0.2,1.4l-5.7,7.5c-0.3,0.5-1.1,0.6-1.4,0.2c-2.9-2.5-7.5-4.1-12.1-4.1c-4,0-6,1.3-6,3.3c0,2.4,2.5,3,10.9,4.8
			C215.8,294.1,222.8,297.2,222.8,307.2z M278.4,255.1H268c-0.6,0-1.1,0.5-1.1,1.1V281c-3.2-4.6-8.6-8.1-15.9-8.1
			c-11.6,0-21.4,8.9-21.4,24.9c0,16,9.8,24.9,21.6,24.9c7,0,12.4-3,15.7-7.9v5.6c0,0.6,0.5,1.1,1.1,1.1h10.5c0.6,0,1.1-0.5,1.1-1.1
			v-64.3C279.6,255.6,279.1,255.1,278.4,255.1z M255,310.5c-7.1,0-12.4-5.1-12.4-12.7s5.2-12.7,12.4-12.7c7,0,12.4,4.9,12.4,12.7
			C267.3,305.6,261.9,310.5,255,310.5z M312.7,272.9c-14.6,0-25.5,10-25.5,24.9c0,14.8,10.9,24.9,25.5,24.9s25.5-10,25.5-24.9
			C338.3,283,327.5,272.9,312.7,272.9z M312.7,310.3c-7.1,0-12.7-5.1-12.7-12.7s5.6-12.7,12.7-12.7s12.7,5.1,12.7,12.7
			C325.4,305.4,319.9,310.3,312.7,310.3z M370.8,272.9c-14.6,0-25.5,10-25.5,24.9c0,14.8,10.9,24.9,25.5,24.9s25.5-10,25.5-24.9
			C396.3,283,385.4,272.9,370.8,272.9z M370.8,310.3c-7.1,0-12.7-5.1-12.7-12.7s5.6-12.7,12.7-12.7s12.7,5.1,12.7,12.7
			C383.3,305.4,377.9,310.3,370.8,310.3z M437.3,275.1c0-0.5-0.3-1-0.8-1.3c-1-0.5-2.4-0.8-5.4-0.8c-6.7,0-12.5,3.3-15.1,8.7v-6.7
			c0-0.6-0.5-1.1-1.1-1.1h-10c-0.6,0-1.1,0.5-1.1,1.1v45.4c0,0.6,0.5,1.1,1.1,1.1h10.5c0.6,0,1.1-0.5,1.1-1.1v-20.3
			c0-9,6.3-13.6,14.6-13.6c1.9,0,3.8,0.5,4.8,0.8c0.6,0.2,1.3-0.3,1.3-1L437.3,275.1z"/>
		<path id="icon_2_" class="st0" d="M262.4,0c16,0,29.2,13,29.2,29.2l0,0H175v119.6c0,0.6-0.5,1.1-1.1,1.1h-27
			c-0.6,0-1.1-0.5-1.1-1.1V29.2l0,0c0-16,13-29.2,29.2-29.2l0,0L262.4,0z M262.4,175H145.8l0,0c0,16,13,29.2,29.2,29.2h87.4l0,0
			c16,0,29.2-13,29.2-29.2l0,0V55.2c0-0.6-0.5-1.1-1.1-1.1h-27c-0.6,0-1.1,0.5-1.1,1.1V175L262.4,175z"/>
	</g>
	<g>
		<path class="st0" d="M294.5,200.3v0.6h-1.1v3h-0.8v-3h-1.1v-0.6H294.5z M297,202.3c0,0.1,0,0.1,0.1,0.2c0,0.1,0,0.1,0.1,0.2
			c0-0.1,0-0.1,0.1-0.2c0,0,0-0.1,0.1-0.2l1-1.9c0-0.1,0.1-0.1,0.1-0.1h0.1h0.6v3.7h-0.7v-2.4l0.1-0.5l-1.1,2.1
			c-0.1,0.1-0.1,0.2-0.3,0.2h-0.1c-0.1,0-0.2-0.1-0.3-0.2l-1.1-2.1v0.4v2.3H295v-3.7h0.6c0.1,0,0.1,0,0.1,0l0.1,0.1L297,202.3z"/>
	</g>
</g>
</svg>
