<?xml version="1.0" standalone="no"?>
<!DOCTYPE svg PUBLIC "-//W3C//DTD SVG 20010904//EN"
 "http://www.w3.org/TR/2001/REC-SVG-20010904/DTD/svg10.dtd">
<svg version="1.0" xmlns="http://www.w3.org/2000/svg"
 width="16.000000pt" height="16.000000pt" viewBox="0 0 16.000000 16.000000"
 preserveAspectRatio="xMidYMid meet">
<metadata>
Created by potrace 1.11, written by Peter Selinger 2001-2013
</metadata>
<g transform="translate(0.000000,16.000000) scale(0.002286,-0.002286)"
fill="#000000" stroke="none">
<path d="M3405 6645 c-180 -63 -307 -241 -307 -433 l-1 -73 -74 151 c-61 126
-83 161 -132 209 -159 158 -414 184 -579 58 -147 -112 -215 -249 -208 -421 3
-73 31 -178 56 -211 4 -5 22 -41 39 -80 l32 -70 -39 40 c-54 55 -74 71 -129
99 -272 137 -581 -1 -658 -295 -20 -74 -13 -210 13 -275 20 -50 75 -167 166
-354 25 -52 46 -96 46 -97 0 -1 -26 25 -58 57 -133 132 -311 162 -480 79 -99
-48 -199 -164 -218 -251 -22 -105 -22 -110 -11 -204 8 -60 37 -133 142 -349
83 -173 157 -326 240 -500 29 -60 105 -220 170 -355 65 -135 141 -294 170
-355 29 -60 77 -162 108 -225 189 -392 221 -461 244 -520 61 -157 147 -369
170 -420 196 -429 400 -765 613 -1004 144 -164 278 -272 432 -350 58 -30 103
-58 100 -61 -4 -4 -2 -6 3 -4 6 1 24 -3 40 -10 43 -18 211 -60 265 -67 25 -3
72 -9 105 -13 94 -14 416 -4 501 14 12 3 39 7 60 10 226 33 631 181 822 302
29 18 54 33 56 33 8 0 129 82 191 129 416 314 699 731 824 1212 16 63 34 146
40 184 6 39 13 86 16 105 6 36 12 192 19 545 5 218 19 326 74 550 23 92 46
177 72 255 21 65 170 482 198 555 201 524 235 639 236 805 1 142 -13 189 -81
275 -60 76 -150 117 -260 121 -47 1 -101 -3 -127 -11 -207 -62 -385 -238 -533
-525 -39 -76 -122 -283 -125 -310 0 -3 -6 -21 -14 -40 -7 -19 -32 -98 -54
-175 -110 -374 -170 -491 -310 -597 l-35 -27 -35 72 c-19 40 -76 160 -128 267
-52 107 -111 231 -132 275 -21 44 -70 148 -110 230 -40 83 -94 195 -120 250
-26 55 -76 159 -110 230 -34 72 -88 184 -120 250 -32 66 -86 179 -120 250
-166 345 -196 407 -242 505 -162 341 -191 394 -254 457 -123 125 -295 165
-459 108z m-1037 -3290 c-3 -3 -9 2 -12 12 -6 14 -5 15 5 6 7 -7 10 -15 7 -18z"/>
<path d="M5189 6618 c17 -23 31 -46 31 -50 0 -5 11 -20 25 -34 43 -43 198
-255 252 -344 118 -196 183 -357 208 -510 3 -19 10 -57 15 -85 14 -68 21 -194
21 -354 l0 -133 29 38 c38 52 75 143 104 256 32 125 37 157 37 265 0 147 -29
271 -101 430 -93 204 -307 407 -551 522 -48 23 -90 41 -94 41 -4 0 7 -19 24
-42z"/>
<path d="M4257 6566 c26 -24 75 -65 108 -91 33 -27 68 -58 78 -69 10 -12 55
-59 101 -106 193 -200 315 -364 414 -557 69 -134 145 -333 167 -438 13 -58 16
-72 20 -95 7 -34 13 -86 20 -150 3 -30 10 -93 16 -140 9 -72 17 -181 22 -292
1 -31 12 -37 20 -10 3 9 17 49 31 87 78 220 104 516 62 715 -3 14 -8 39 -12
55 -50 248 -196 519 -382 709 -159 162 -427 332 -651 411 -65 23 -67 19 -14
-29z"/>
<path d="M651 3618 c-49 -183 -56 -216 -67 -323 -13 -127 -10 -205 10 -366 16
-119 69 -285 132 -412 33 -66 121 -215 134 -227 3 -3 30 -36 61 -75 62 -77 73
-88 146 -156 59 -56 223 -172 313 -222 77 -42 183 -85 300 -121 l85 -26 -75
73 c-42 39 -114 104 -160 142 -119 98 -306 286 -379 379 -98 125 -207 297
-265 421 -76 159 -156 440 -181 629 -3 27 -8 52 -10 55 -5 8 -14 93 -21 186
-3 44 -7 81 -8 83 -2 1 -9 -17 -15 -40z"/>
<path d="M225 2083 c21 -202 178 -465 368 -621 255 -208 678 -291 1024 -201
122 32 124 41 11 58 -229 35 -482 114 -696 217 -97 47 -253 144 -288 178 -6 6
-30 27 -55 46 -47 38 -203 191 -259 255 -19 22 -52 60 -73 83 l-38 44 6 -59z"/>
</g>
</svg>
