<svg width="17" height="13" viewBox="0 0 17 13" xmlns="http://www.w3.org/2000/svg"><title>D3BF9077-6F75-4E25-8BA1-ED26125652B0</title><path d="M2.105 1.332h12.022c.376 0 .691.269.767.626L8.182 7.275l-6.844-5.32a.788.788 0 0 1 .767-.623zm4.123 6.106l1.555 1.209a.654.654 0 0 0 .81-.004l1.543-1.222 3.832 3.633H2.414l3.814-3.616zM1.32 10.261v-6.64l3.85 2.994-3.85 3.65v-.004zm13.593-.138l-3.726-3.534 3.726-2.952v6.486zm1.32-7.997A2.118 2.118 0 0 0 14.126 0H2.105C.945 0 0 .954 0 2.126v8.135c0 .542.202 1.036.533 1.412a.669.669 0 0 0 .349.317c.345.25.767.397 1.223.397h12.022a2.08 2.08 0 0 0 1.29-.448.655.655 0 0 0 .413-.431c.252-.35.401-.781.401-1.247V2.126z" fill="#4D4545" fill-rule="evenodd"/></svg>