<?xml version="1.0" standalone="no"?>
<!DOCTYPE svg PUBLIC "-//W3C//DTD SVG 20010904//EN"
 "http://www.w3.org/TR/2001/REC-SVG-20010904/DTD/svg10.dtd">
<svg version="1.0" xmlns="http://www.w3.org/2000/svg"
 width="512.000000pt" height="512.000000pt" viewBox="0 0 512.000000 512.000000"
 preserveAspectRatio="xMidYMid meet">
<metadata>
Created by potrace 1.11, written by Peter Selinger 2001-2013
</metadata>
<g transform="translate(0.000000,512.000000) scale(0.100000,-0.100000)"
fill="#000000" stroke="none">
<path d="M1041 4658 c-78 -12 -138 -44 -204 -109 l-59 -59 -159 0 c-144 0
-159 -2 -160 -17 -1 -23 -1 -294 0 -310 1 -10 34 -13 131 -13 117 0 130 -2
130 -17 1 -10 2 -92 4 -183 2 -91 9 -177 15 -192 6 -16 9 -28 6 -28 -8 0 44
-139 70 -186 90 -164 242 -286 435 -352 130 -44 317 -60 470 -40 321 42 573
241 664 524 29 90 33 120 40 349 1 58 32 115 71 133 14 7 44 12 65 12 33 0 47
-7 80 -40 22 -22 40 -50 41 -62 0 -13 2 -79 4 -148 6 -225 72 -392 206 -528
165 -168 389 -251 661 -247 373 7 662 187 778 486 39 102 51 185 52 367 l1
152 134 0 133 0 0 170 0 170 -161 0 -161 0 -55 56 c-58 59 -130 99 -198 110
-54 9 -1041 9 -1091 0 -61 -12 -151 -65 -199 -118 l-43 -48 -196 0 c-113 0
-196 4 -196 9 0 16 -75 86 -121 113 -84 49 -101 51 -635 52 -276 0 -524 -2
-553 -6z m1061 -237 c35 -12 66 -40 88 -81 12 -23 16 -412 5 -499 -37 -288
-296 -475 -645 -465 -110 3 -135 6 -212 29 -65 19 -114 42 -178 86 -96 65
-157 148 -192 264 -20 63 -22 93 -22 320 -1 226 1 253 17 280 31 50 65 68 136
74 127 11 966 4 1003 -8z m1961 0 c45 -15 83 -62 94 -116 9 -47 9 -376 -1
-455 -22 -186 -119 -321 -292 -408 -168 -85 -440 -90 -627 -12 -166 69 -267
180 -314 345 -11 35 -16 119 -18 289 -3 259 0 279 50 329 43 43 37 42 611 41
332 -1 471 -5 497 -13z"/>
<path d="M4426 3282 c-4 -7 -7 -22 -56 -282 -36 -189 -50 -234 -88 -275 -15
-17 -54 -61 -87 -100 -33 -38 -62 -72 -65 -75 -3 -3 -61 -72 -130 -155 -69
-82 -127 -152 -131 -155 -5 -5 -19 -35 -25 -55 -1 -5 -30 -89 -64 -185 -34
-96 -66 -190 -72 -208 -5 -19 -11 -32 -13 -30 -3 2 -5 96 -6 208 -1 161 -5
220 -20 276 -57 228 -235 417 -449 478 -112 31 -127 30 -246 -18 -153 -62
-342 -136 -387 -152 -37 -13 -42 -11 -255 72 -356 141 -311 128 -400 109 -225
-50 -407 -216 -482 -441 -30 -87 -33 -126 -34 -336 0 -104 -3 -188 -6 -188 -3
0 -15 28 -27 63 -123 367 -132 388 -202 472 -36 44 -68 82 -71 85 -3 3 -53 61
-110 130 -58 69 -124 145 -147 170 -66 69 -86 123 -117 308 -21 118 -53 272
-59 278 -23 23 -137 -57 -137 -97 0 -10 -4 -20 -8 -23 -4 -2 -7 -87 -6 -188
l1 -183 67 -245 c36 -135 75 -276 86 -315 10 -38 35 -131 54 -205 87 -331 71
-294 177 -421 52 -63 115 -139 139 -169 25 -30 47 -57 50 -60 3 -3 84 -99 179
-215 95 -115 185 -224 199 -242 15 -18 103 -124 196 -237 l170 -205 708 -1
708 0 101 123 c56 67 119 142 139 167 21 25 75 90 120 145 45 55 99 120 120
145 21 25 62 74 91 110 30 36 56 67 59 70 3 3 24 28 45 55 22 28 42 52 45 55
3 3 68 82 144 175 77 94 146 178 154 187 8 10 30 75 48 145 18 70 47 178 63
238 16 61 43 164 61 230 17 66 54 201 81 301 l49 181 0 177 c0 154 -2 182 -19
214 -10 20 -27 44 -37 54 -24 21 -92 49 -98 40z m-1262 -976 c64 -12 128 -64
163 -130 24 -47 21 -157 -9 -271 -5 -22 -12 -48 -14 -58 -2 -10 -6 -27 -9 -37
-3 -10 -8 -28 -10 -39 -3 -12 -7 -29 -9 -38 -9 -37 -37 -160 -46 -200 -17 -80
-50 -207 -55 -211 -9 -9 -224 -3 -262 7 -83 22 -167 133 -163 214 1 18 2 100
1 184 l-1 152 -197 -2 -198 -2 -1 -191 c-2 -169 -4 -195 -22 -230 -52 -103
-114 -134 -273 -137 -64 -1 -117 2 -124 8 -7 5 -23 53 -35 105 -12 52 -41 178
-65 280 -63 263 -65 272 -70 300 -30 149 55 278 199 302 41 7 1163 1 1200 -6z"/>
</g>
</svg>
