<?xml version="1.0" standalone="no"?>
<!DOCTYPE svg PUBLIC "-//W3C//DTD SVG 20010904//EN"
 "http://www.w3.org/TR/2001/REC-SVG-20010904/DTD/svg10.dtd">
<svg version="1.0" xmlns="http://www.w3.org/2000/svg"
 width="260.000000pt" height="260.000000pt" viewBox="0 0 260.000000 260.000000"
 preserveAspectRatio="xMidYMid meet">
<metadata>
Created by potrace 1.11, written by Peter Selinger 2001-2013
</metadata>
<g transform="translate(0.000000,260.000000) scale(0.100000,-0.100000)"
fill="#000000" stroke="none">
<path d="M900 2583 c-451 -80 -806 -439 -884 -892 -23 -135 -23 -647 0 -782
78 -458 435 -815 893 -893 135 -23 647 -23 782 0 458 78 815 435 893 893 23
135 23 647 0 782 -67 388 -337 712 -705 843 -159 57 -243 66 -588 65 -225 -1
-328 -5 -391 -16z m125 -631 c80 -41 129 -119 141 -225 4 -31 5 -57 3 -57 -2
0 -41 -6 -87 -14 -45 -7 -84 -11 -86 -7 -2 3 -7 26 -11 50 -10 63 -54 106 -97
97 -42 -8 -66 -32 -78 -76 -24 -88 15 -161 174 -328 89 -95 134 -151 156 -195
96 -196 42 -418 -120 -491 -64 -28 -179 -28 -240 0 -96 45 -164 147 -176 261
-7 68 -11 65 91 78 28 4 58 9 68 12 12 3 17 -1 17 -15 0 -35 31 -123 51 -143
13 -13 33 -19 65 -19 37 0 51 5 75 29 24 25 29 37 29 81 0 71 -17 104 -105
206 -245 282 -271 323 -282 436 -4 46 -1 81 11 122 33 112 84 169 191 213 45
19 162 10 210 -15z m722 4 c2 -1 132 -800 173 -1059 18 -109 29 -205 26 -213
-4 -11 -27 -14 -100 -14 -110 0 -98 -13 -116 130 -6 47 -13 100 -17 118 l-5
32 -73 0 c-85 0 -76 14 -95 -150 -17 -142 -7 -130 -116 -130 -73 0 -94 3 -94
14 0 8 11 92 25 187 13 96 49 354 79 574 31 220 59 425 63 455 l8 55 90 6 c74
4 143 2 152 -5z"/>
<path d="M1611 1352 c-13 -97 -25 -185 -28 -194 -4 -16 3 -18 51 -18 55 0 55
0 51 28 -3 15 -14 101 -25 191 -10 90 -21 165 -23 167 -2 2 -14 -76 -26 -174z"/>
</g>
</svg>
